<?xml version="1.0" encoding="UTF-8"?>
<!DOCTYPE svg PUBLIC "-//W3C//DTD SVG 1.1//EN" "http://www.w3.org/Graphics/SVG/1.1/DTD/svg11.dtd">
<!-- Creator: CorelDRAW 2021 (64-Bit) -->
<svg xmlns="http://www.w3.org/2000/svg" xml:space="preserve" width="1.72519in" height="0.514543in" version="1.1" style="shape-rendering:geometricPrecision; text-rendering:geometricPrecision; image-rendering:optimizeQuality; fill-rule:evenodd; clip-rule:evenodd"
viewBox="0 0 1785.76 532.61"
 xmlns:xlink="http://www.w3.org/1999/xlink"
 xmlns:xodm="http://www.corel.com/coreldraw/odm/2003">
 <defs>
  <style type="text/css">
   <![CDATA[
    .fil1 {fill:none}
    .fil2 {fill:#9D9E9E}
    .fil0 {fill:#116299}
    .fil3 {fill:#05C597}
    .fil4 {fill:#9D9E9E;fill-rule:nonzero}
    .fil5 {fill:#898989;fill-rule:nonzero}
   ]]>
  </style>
 </defs>
 <g id="Layer_x0020_1">
  <metadata id="CorelCorpID_0Corel-Layer"/>
  <g id="_2612645038240">
   <path class="fil0" d="M535.8 347.69l0 -264.06 68.68 0 0 264.06 -68.68 0zm-486.86 -236.69c25.77,-21.95 60.38,-27.17 100.1,-27.2l114.91 -0.07c0.18,-0.02 0.36,-0.04 0.54,-0.04 2.05,0 3.71,1.59 3.71,3.54 0,0.94 -0.38,1.8 -1.01,2.43l0.02 0.04 -36.62 55.2 -89.74 0.1c-82.84,0.09 -86.44,141.39 -3.57,141.47l93.31 0.1 36.62 55.19 -0.02 0.04c0.63,0.63 1.01,1.49 1.01,2.43 0,1.95 -1.66,3.54 -3.71,3.54 -0.18,0 -0.37,-0.01 -0.54,-0.04l-118.48 -0.07c-39.73,-0.02 -74.33,-5.24 -100.1,-27.19 -62.83,-55.66 -59.27,-153.83 3.57,-209.48zm257.16 214.81c-7.49,-4.9 -14.46,-10.52 -20.79,-16.77 -24.2,-23.88 -39.18,-56.88 -39.18,-93.31 0,-11.46 1.48,-22.57 4.27,-33.17 2.66,-10.64 6.72,-21.12 12.24,-31.18 17.53,-31.94 46.54,-53.65 79.25,-62.94 7.56,-2.15 15.31,-3.62 23.16,-4.41l0.03 0.53c4.84,-0.52 9.76,-0.79 14.74,-0.8l-0.02 -0.41c10.51,0.1 21.1,1.44 31.54,4.08 24.3,5.78 46.03,18.11 63.14,34.99 23.14,22.83 37.84,53.98 39.09,88.51l-0.47 0c0.24,4.86 0.21,9.75 -0.1,14.65l0.29 0c-0.6,8.06 -1.94,15.92 -3.95,23.52 -2.29,9.1 -5.59,18.08 -9.96,26.78l-0.3 -0.17c-2.25,4.35 -4.75,8.56 -7.46,12.61l0.46 0.26c-17.77,27.33 -44.45,46.05 -74.19,54.49 -23.17,6.58 -48.2,6.92 -72.34,0.24 -9.33,-2.44 -18.26,-5.85 -26.67,-10.11l0.2 -0.32c-0.9,-0.47 -1.8,-0.95 -2.69,-1.44 -3.45,-1.89 -6.78,-3.91 -10,-6.05l-0.28 0.44zm89.53 -177.63c-5.06,-1.14 -10.33,-1.74 -15.74,-1.74 -10.78,0 -20.99,2.39 -30.11,6.67l-0.23 -0.36c-4.46,2.07 -8.7,4.62 -12.65,7.62l0.24 0.37c-2.43,1.85 -4.75,3.85 -6.92,5.99 -8.68,8.57 -15.11,19.37 -18.31,31.46l-0.05 0.22c-3.02,12.14 -2.58,24.7 0.9,36.39 1.15,3.86 2.64,7.61 4.44,11.24l-0.38 0.22c2.2,4.43 4.88,8.59 7.95,12.43l0.36 -0.2c5.69,7.15 12.87,13.32 21.41,18.01 4.76,2.61 9.67,4.62 14.67,6.06l0.08 0.02 0.13 0.03c5.88,1.57 12.07,2.42 18.46,2.42 19.39,0 36.95,-7.76 49.67,-20.29 8.57,-8.46 14.94,-19.09 18.17,-30.99 3.2,-12.34 2.82,-25.14 -0.73,-37.04 -5.1,-17.11 -16.76,-32.36 -33.77,-41.69 -5.68,-3.12 -11.59,-5.38 -17.6,-6.83zm307.79 70.68c0,41.1 0,82.21 0,123.31 0.03,3.66 -2.23,5.53 -5.62,5.53l-60.33 0 0 -257.99c-0.01,-10.31 8.38,-3.59 14.78,1.23l161.88 122.1c0,-41.1 0,-82.72 0,-123.82 -0.03,-3.66 2.23,-5.53 5.62,-5.53l60.33 0 0 258.5c0.01,10.31 -8.38,3.6 -14.78,-1.23l-161.88 -122.1z"/>
   <path class="fil1" d="M1041.64 86.76c70.53,0 128.14,54.09 131.79,122.15l-56.05 0c-3.31,-37.95 -35.87,-67.74 -75.55,-67.74 -39.68,0 -72.24,29.79 -75.55,67.74l-56.45 0c3.65,-68.06 61.26,-122.15 131.8,-122.15z"/>
   <path class="fil2" d="M1064.45 270.06l0 -106.44c0.11,-1.78 -2.74,-5.29 -7.62,-2.37l-44.7 20.77c-4.46,2.61 -3.4,7.91 0.33,9.34 4.44,2.15 7.35,2.76 7.37,8.53 0,21.97 0,48.57 0,70.53 10.81,4.07 32.21,5.07 44.62,-0.37z"/>
   <path class="fil3" d="M1263.18 218.86c0,41.1 0,82.21 0,123.31 0.03,3.66 -2.22,5.53 -5.62,5.53l-60.33 0 0 -257.99c-0.01,-10.31 8.38,-3.59 14.78,1.23l161.88 122.1c0,-41.1 0,-82.72 0,-123.82 -0.03,-3.66 2.22,-5.53 5.62,-5.53l60.33 0 0 258.5c0.01,10.31 -8.38,3.6 -14.78,-1.23l-161.88 -122.1z"/>
   <path class="fil3" d="M1176.71 219.7c-1.87,34.88 -17.94,69.28 -42.26,91.81 -24.19,22.42 -56.87,36.18 -92.81,36.18 -35.95,0 -68.63,-13.76 -92.82,-36.18 -24.31,-22.53 -40.05,-53.83 -41.92,-88.72l-0.16 -3.03 63.45 0c2.36,38.86 31.31,63.08 71.65,63.08 40.34,0 69.98,-24.22 72.34,-63.08l62.53 -0.07z"/>
   <path class="fil3" d="M1505.91 111c25.77,-21.95 60.38,-27.17 100.1,-27.2l114.91 -0.07c0.18,-0.02 0.36,-0.04 0.54,-0.04 2.05,0 3.71,1.59 3.71,3.54 0,0.94 -0.38,1.8 -1.01,2.43l0.02 0.04 -36.62 54.14 -89.74 0.1c-28.66,0.03 -47.83,17.09 -57.22,39.4l81.71 0.31 40.08 62.15 -123.84 0c8.04,22.92 26.49,40.64 55.7,40.67l93.31 0.1 36.62 55.19 -0.02 0.04c0.63,0.63 1.01,1.49 1.01,2.43 0,1.95 -1.66,3.54 -3.71,3.54 -0.18,0 -0.37,-0.01 -0.54,-0.04l-118.48 -0.07c-39.73,-0.02 -74.33,-5.24 -100.1,-27.19 -62.83,-55.66 -59.27,-153.83 3.57,-209.48z"/>
   <path class="fil2" d="M1044.87 95.85c2.7,0.07 5.37,0.22 8.02,0.46l0.74 -5.91c-2.9,-0.26 -5.83,-0.43 -8.79,-0.5l0.02 5.95zm-3.03 42.22c2,0 3.98,0.07 5.94,0.21 -1.31,-1.65 -2.4,-3.5 -3.22,-5.54l-0.03 -0.07 -0.31 -0.82 -0.02 -0.09c-2.03,-5.73 -1.72,-12.07 0.48,-17.68 1.76,-4.5 4.78,-8.57 8.79,-11.49 -3.89,-0.38 -7.83,-0.58 -11.82,-0.58 -4.04,0 -8.03,0.2 -11.96,0.59 4,2.92 7.01,6.97 8.77,11.47 2.2,5.61 2.51,11.95 0.48,17.68l-0.02 0.09 -0.31 0.82 -0.03 0.07c-0.83,2.05 -1.94,3.92 -3.26,5.59 2.16,-0.18 4.34,-0.26 6.53,-0.26zm24.65 -39.79l1.48 -0.05 1.4 -5.44c-2.85,-0.61 -5.73,-1.13 -8.65,-1.56l-0.01 0.08 -0.72 5.84c2.19,0.32 4.35,0.7 6.5,1.13zm2.9 6.99c-1.94,-0.07 -3.7,0.07 -5.18,0.32 -1.97,0.33 -3.4,0.83 -4.21,1.28l-0.07 0.04c-3.92,2.07 -6.84,5.6 -8.44,9.66 -1.62,4.12 -1.87,8.74 -0.43,12.87l0 0 0.31 0.82c1.64,4 4.74,6.99 8.52,8.62 3.81,1.64 8.32,1.92 12.73,0.49l0 -0 0.92 -0.33c3.28,-1.26 5.82,-3.67 7.24,-6.54 1.42,-2.84 1.75,-6.16 0.67,-9.24l-0.2 -0.51c-1.13,-2.8 -3.3,-4.89 -5.93,-6.03 -2.64,-1.14 -5.79,-1.34 -8.86,-0.35l0 0 -0.7 0.25c-1.88,0.73 -3.33,2.11 -4.15,3.75l0 0.02c-0.8,1.61 -0.99,3.48 -0.41,5.22l0 0 0.15 0.4 -0 0c0.64,1.54 1.85,2.69 3.29,3.32 6.67,2.88 8.99,-4.09 9.08,-5.34 5.64,1.42 5.33,9.52 -1.04,11.95l-0.09 0.03 -0.45 0.16 -0.06 0.02c-3.56,1.18 -7.26,0.95 -10.4,-0.41 -3.18,-1.38 -5.79,-3.89 -7.14,-7.24l-0.03 -0.07 -0.15 -0.4 -0.02 -0.08c-1.26,-3.57 -0.9,-7.38 0.72,-10.62l0.01 0c1.61,-3.22 4.44,-5.91 8.11,-7.29l0.07 -0.03 0.7 -0.24 0.09 -0.02c4.89,-1.61 9.94,-1.29 14.24,0.56 4.34,1.87 7.9,5.31 9.76,9.88l0.03 0.08 0.23 0.62 0.03 0.07c1.74,4.9 1.23,10.13 -1,14.59 -2.2,4.43 -6.13,8.14 -11.21,10.06l-0.07 0.03 -0.06 0.02c1.84,0.86 3.64,1.8 5.4,2.8 13.79,-7.18 15.83,-20.8 16.63,-26 8.5,8.92 10.88,32.94 12.1,48.35 0.46,3.83 1.1,6.93 2.18,9.61 0.47,0.9 0.92,1.81 1.35,2.73 1.14,1.93 2.62,3.66 4.58,5.35 3.85,3.59 8.4,5.67 13.64,5.67 0.66,0 1.23,-0.02 1.73,-0.07 4.28,-0.42 7.98,-2.4 10.6,-5.38 2.67,-3.05 4.25,-7.18 4.25,-11.81 0,-0.79 -0.04,-1.54 -0.11,-2.21 -0.42,-3.98 -2.37,-7.6 -5.18,-10.22 -2.74,-2.55 -6.28,-4.13 -9.98,-4.13 -0.48,0 -0.89,0.02 -1.22,0.05 -2.97,0.28 -5.55,1.67 -7.37,3.75 -1.88,2.15 -2.99,5.06 -2.99,8.34 0,0.58 0.02,1.11 0.08,1.58 0.25,2.39 1.43,4.56 3.11,6.14 1.61,1.5 3.7,2.44 5.86,2.44 0.31,0 0.54,-0.01 0.7,-0.02 4.61,-0.44 6.02,-4.7 6.02,-8.53 1.55,-0.13 4.76,0.59 5.18,4.63 0.25,7.12 -5.46,10.41 -11.9,10.48 -3.99,0 -7.77,-1.65 -10.62,-4.31 -2.79,-2.6 -4.73,-6.2 -5.14,-10.18 -0.09,-0.81 -0.13,-1.55 -0.13,-2.22 0,-4.86 1.71,-9.24 4.59,-12.54 2.93,-3.35 7.11,-5.58 11.95,-6.04 0.67,-0.07 1.32,-0.1 1.89,-0.1 2.36,0 4.66,0.42 6.84,1.19 -4.61,-7.12 -10.01,-13.7 -16.08,-19.63 -14.79,-14.46 -33.56,-25.05 -54.57,-30.07zm84.46 80.14c-1.01,2.8 -2.5,5.33 -4.4,7.49 -3.73,4.26 -9.01,7.09 -15.16,7.68 -0.86,0.08 -1.66,0.12 -2.4,0.12 -4.71,0 -9.25,-1.31 -13.26,-3.58 0.38,1.54 0.71,3.09 0.99,4.66l37.55 0c-0.71,-5.6 -1.82,-11.06 -3.32,-16.38zm-33.3 23.42l0 0.09 -6.31 0c-1.56,-17.07 -9.29,-32.4 -20.98,-43.84 -13.14,-12.85 -31.32,-20.8 -51.41,-20.8 -20.09,0 -38.27,7.95 -51.41,20.8 -11.7,11.44 -19.43,26.77 -20.99,43.84l-6.31 0 0.01 -0.09 -37.69 0 -0 0.08 -18.75 0 0 -0.16c1.87,-34.95 17.64,-66.3 41.99,-88.87 24.22,-22.45 56.95,-36.23 92.94,-36.23 35.99,0 68.71,13.78 92.94,36.23 24.35,22.57 40.12,53.92 41.99,88.87l0.01 0.16 -18.75 0 -0 -0.08 -37.28 0zm-156.47 -7.04c0.31,-1.7 0.67,-3.37 1.09,-5.04 -4.16,2.5 -8.95,3.95 -13.91,3.95 -0.74,0 -1.54,-0.04 -2.4,-0.12 -6.15,-0.59 -11.44,-3.42 -15.17,-7.68 -1.84,-2.1 -3.31,-4.56 -4.31,-7.26 -1.47,5.24 -2.56,10.64 -3.26,16.15l37.96 0zm17.13 -35.96c1.52,-1.78 3.13,-3.5 4.81,-5.15 2.99,-2.92 6.22,-5.61 9.65,-8.04 -4.32,-3.16 -9.27,-9.03 -11.76,-6.94 -1.53,1.28 -2.46,13.58 -2.71,20.13zm20.82 -17.23c1.76,-1.01 3.58,-1.96 5.43,-2.84l-0.38 -0.13 -0.07 -0.03c-5.09,-1.92 -9.01,-5.63 -11.22,-10.06 -2.23,-4.47 -2.73,-9.69 -1,-14.59l0.02 -0.07 0.23 -0.62 0.03 -0.08c1.85,-4.57 5.42,-8.01 9.75,-9.88 4.3,-1.85 9.36,-2.18 14.24,-0.56l0.09 0.02 0.7 0.24 0.07 0.03c3.68,1.39 6.51,4.08 8.12,7.29l0.01 -0c1.61,3.24 1.98,7.04 0.72,10.62l-0.02 0.08 -0.15 0.4 -0.03 0.07c-1.35,3.35 -3.96,5.86 -7.14,7.24 -3.14,1.36 -6.84,1.59 -10.41,0.41l-0.06 -0.02 -0.45 -0.16 -0.08 -0.03c-6.37,-2.43 -6.68,-10.53 -1.04,-11.95 0.1,1.26 2.41,8.22 9.08,5.34 1.45,-0.62 2.65,-1.78 3.29,-3.32l-0 0 0.15 -0.4 0 0c0.59,-1.74 0.39,-3.61 -0.41,-5.22l0 -0.02c-0.82,-1.64 -2.27,-3.02 -4.15,-3.75l-0.69 -0.25 0 -0c-3.07,-0.99 -6.22,-0.79 -8.86,0.35 -2.63,1.13 -4.8,3.23 -5.93,6.03l-0.19 0.51c-1.08,3.08 -0.75,6.4 0.67,9.24 1.43,2.87 3.96,5.28 7.25,6.54l0.92 0.33 0 0c4.41,1.43 8.92,1.15 12.73,-0.49 3.77,-1.63 6.88,-4.62 8.51,-8.62l0.31 -0.82 0 0c1.43,-4.13 1.19,-8.75 -0.43,-12.87 -3.48,-8.87 -9.65,-11.26 -18.17,-11.19 -20.84,5.06 -39.45,15.6 -54.15,29.96 -6.05,5.91 -11.43,12.47 -16.03,19.56 2.12,-0.72 4.36,-1.12 6.65,-1.12 0.57,0 1.21,0.04 1.89,0.1 4.84,0.46 9.01,2.69 11.95,6.04 2.89,3.3 4.59,7.68 4.59,12.54 0,0.67 -0.04,1.41 -0.12,2.22 -0.42,3.97 -2.36,7.58 -5.15,10.18 -2.85,2.66 -6.62,4.31 -10.62,4.31 -6.43,-0.07 -12.14,-3.36 -11.89,-10.48 0.41,-4.03 3.63,-4.75 5.18,-4.63 0,3.83 1.41,8.1 6.03,8.53 0.15,0.01 0.39,0.02 0.69,0.02 2.16,0 4.25,-0.94 5.87,-2.44 1.68,-1.57 2.86,-3.75 3.11,-6.14 0.05,-0.47 0.07,-1 0.07,-1.58 0,-3.28 -1.11,-6.19 -2.99,-8.34 -1.83,-2.08 -4.4,-3.46 -7.38,-3.75 -0.33,-0.03 -0.74,-0.05 -1.22,-0.05 -3.7,0 -7.24,1.58 -9.98,4.13 -2.8,2.62 -4.76,6.24 -5.18,10.22 -0.07,0.68 -0.1,1.42 -0.1,2.21 0,4.63 1.58,8.76 4.25,11.81 2.62,2.98 6.32,4.96 10.6,5.38 0.5,0.04 1.08,0.07 1.73,0.07 5.24,0 9.78,-2.07 13.64,-5.67 5.3,-4.61 7.13,-9.44 8.12,-17.69 1.21,-15.41 3.59,-39.42 12.1,-48.35 0.8,5.24 2.86,19.01 16.92,26.15zm85.71 3.85c3.55,2.48 6.87,5.23 9.94,8.24 1.47,1.43 2.88,2.93 4.23,4.47 -0.29,-6.68 -1.2,-18.21 -2.69,-19.45 -2.43,-2.03 -7.22,3.55 -11.48,6.74zm20.55 -22.37c4.02,10.34 6.12,24.56 6.17,27.46 1.94,-3.56 8.06,-6.86 13.36,-8.01 -1.8,-4.56 -16.08,-19.46 -19.52,-19.46zm-93.66 -31.85c0.75,-0 1.46,0.02 2.15,0.05 1.94,-0.39 3.9,-0.74 5.88,-1.04l-0.76 -5.91c-2.92,0.44 -5.81,0.97 -8.66,1.6l1.39 5.29zm-39.78 31.85c-4.02,10.34 -6.12,24.56 -6.17,27.46 -1.94,-3.56 -8.05,-6.86 -13.35,-8.01 1.8,-4.56 16.07,-19.46 19.52,-19.46zm99.97 -29.82c2.59,0.71 5.14,1.5 7.65,2.36l2.2 -5.56c-2.75,-0.95 -5.55,-1.82 -8.38,-2.59l-1.47 5.79zm14.31 4.88c2.47,1.01 4.9,2.11 7.28,3.28l2.89 -5.27c-2.61,-1.28 -5.27,-2.47 -7.98,-3.58l-0.57 1.45 -1.62 4.12zm13.58 6.58c2.31,1.3 4.58,2.68 6.79,4.12l3.54 -4.89c-2.42,-1.58 -4.91,-3.08 -7.45,-4.5l-2.89 5.28zm12.63 8.16c2.13,1.56 4.2,3.19 6.21,4.89l4.14 -4.43c-2.2,-1.86 -4.48,-3.64 -6.81,-5.35l-3.53 4.9zm11.5 9.6l1.54 1.48c1.37,1.34 2.7,2.71 4.01,4.1l4.66 -3.9c-1.96,-2.1 -3.98,-4.14 -6.08,-6.12l-2.29 2.47 -1.84 1.98zm10.22 10.91c1.66,2.01 3.26,4.07 4.78,6.17l5.12 -3.32c-1.67,-2.32 -3.43,-4.58 -5.25,-6.77l-0.62 0.52 -4.03 3.39zm8.76 12.02c1.39,2.18 2.72,4.42 3.97,6.7l5.51 -2.68c-1.37,-2.5 -2.82,-4.94 -4.36,-7.34l-3.66 2.38 -1.46 0.95zm7.18 12.98c1.1,2.33 2.14,4.7 3.09,7.11l5.8 -2.01c-1.04,-2.64 -2.18,-5.24 -3.39,-7.8l-5.5 2.69zm5.49 13.73c0.8,2.44 1.52,4.91 2.16,7.4l6.02 -1.29c-0.71,-2.75 -1.5,-5.46 -2.38,-8.13l-5.8 2.02zm3.71 14.29c0.48,2.51 0.89,5.05 1.21,7.6l6.13 -0.56c-0.35,-2.81 -0.8,-5.59 -1.33,-8.35l-6.01 1.3zm-242.4 8.25c0.31,-2.56 0.7,-5.1 1.17,-7.61l-6.01 -1.28c-0.52,2.75 -0.95,5.54 -1.29,8.35l6.13 0.53zm2.67 -14.49c0.63,-2.51 1.34,-4.99 2.13,-7.43l-1.01 -0.35 -4.8 -1.63c-0.87,2.68 -1.65,5.4 -2.33,8.15l6.02 1.26zm4.49 -14.08c0.94,-2.42 1.96,-4.79 3.05,-7.12l-2.54 -1.23 -2.97 -1.43c-1.21,2.56 -2.32,5.16 -3.35,7.81l5.81 1.97zm6.24 -13.42c1.24,-2.29 2.55,-4.52 3.93,-6.72l-5.13 -3.31c-1.52,2.4 -2.96,4.86 -4.32,7.36l5.52 2.66zm7.87 -12.57c1.52,-2.12 3.11,-4.19 4.76,-6.21l-4.67 -3.89c-1.82,2.21 -3.56,4.48 -5.22,6.81l5.14 3.3zm9.4 -11.55c1.44,-1.56 2.92,-3.09 4.45,-4.58l1.08 -1.04 -1.81 -1.93 -2.34 -2.49c-2.08,1.98 -4.1,4.03 -6.05,6.15l2.41 2.01 2.27 1.88zm10.78 -10.36c2.01,-1.7 4.07,-3.35 6.18,-4.92l-3.55 -4.88c-2.32,1.72 -4.58,3.52 -6.78,5.39l4.15 4.41zm11.99 -8.99c2.21,-1.45 4.47,-2.84 6.78,-4.15l-2.18 -3.93 -0.74 -1.33c-2.53,1.43 -5.01,2.95 -7.43,4.55l3.56 4.87zm13.06 -7.49c2.38,-1.17 4.8,-2.28 7.26,-3.31l-2.22 -5.56c-2.7,1.12 -5.35,2.33 -7.96,3.62l2.92 5.25zm13.91 -5.86c2.51,-0.88 5.06,-1.69 7.65,-2.42l-1.28 -4.94 -0.22 -0.84c-2.83,0.79 -5.63,1.67 -8.37,2.64l1.02 2.56 1.21 3zm29.53 -6.47c2.66,-0.25 5.33,-0.42 8.03,-0.5l-0.01 -5.95c-2.96,0.09 -5.89,0.26 -8.8,0.54l0.77 5.91z"/>
   <path class="fil4" d="M44.68 444.07c1.25,0.05 2.44,0.1 3.61,0.13 1.14,0.02 2.23,0.02 3.23,0.05 1.01,0 1.9,0.02 2.71,0.02 0.81,0.02 1.5,0.02 2.06,0.02 1.14,0 2.24,-0.02 3.25,-0.1 1.01,-0.08 1.88,-0.15 2.59,-0.23 0.28,0.94 0.41,1.67 0.41,2.23 0,1.09 -0.43,1.8 -1.34,2.16 -0.92,0.33 -2.21,0.51 -3.94,0.51 -1.7,0 -3.61,-0.08 -5.71,-0.28 -2.11,-0.18 -4.42,-0.35 -6.96,-0.53 -0.1,2.94 -0.23,6.16 -0.38,9.61 -0.15,3.48 -0.33,7.07 -0.56,10.78 -0.25,3.73 -0.53,7.48 -0.89,11.31 -0.36,3.83 -0.76,7.56 -1.27,11.21 -0.51,3.63 -1.12,7.1 -1.8,10.42 -0.71,3.3 -1.52,6.32 -2.44,9 -1.45,4.24 -3.1,7.76 -4.93,10.6 -1.85,2.84 -3.8,5.12 -5.86,6.85 -2.08,1.73 -4.21,2.94 -6.45,3.68 -2.21,0.74 -4.42,1.09 -6.63,1.09 -1.91,0 -3.68,-0.2 -5.31,-0.63 -1.62,-0.44 -3.02,-0.99 -4.21,-1.7 -1.19,-0.73 -2.14,-1.57 -2.82,-2.51 -0.69,-0.96 -1.02,-1.98 -1.02,-3.04 0,-0.58 0.13,-1.17 0.41,-1.75 0.28,-0.58 0.66,-1.09 1.15,-1.54 0.48,-0.46 1.04,-0.82 1.7,-1.09 0.66,-0.28 1.37,-0.43 2.13,-0.43 0.74,1.29 1.52,2.38 2.38,3.29 0.87,0.89 1.81,1.65 2.8,2.23 0.99,0.56 2.03,0.99 3.1,1.27 1.06,0.28 2.13,0.41 3.22,0.41 2.84,0 5.28,-0.91 7.27,-2.77 2.01,-1.85 3.68,-4.46 5.02,-7.83 1.34,-3.38 2.42,-7.46 3.17,-12.25 0.79,-4.77 1.37,-10.1 1.78,-15.95 0.41,-5.86 0.69,-12.17 0.82,-18.97 0.15,-6.8 0.23,-13.93 0.28,-21.38 -2.34,0.03 -4.47,0.1 -6.47,0.25 -1.98,0.15 -3.64,0.46 -4.98,0.97 -0.1,-0.23 -0.15,-0.46 -0.15,-0.71 0,-0.59 0.28,-1.14 0.86,-1.65 0.55,-0.51 1.37,-0.97 2.38,-1.37 1.04,-0.38 2.29,-0.71 3.73,-0.97 1.45,-0.22 3.05,-0.4 4.83,-0.48 0.08,-2.34 0.2,-4.54 0.36,-6.67 0.15,-2.11 0.35,-4.21 0.58,-6.27 0.23,-2.08 0.53,-4.16 0.86,-6.24 0.35,-2.08 0.79,-4.23 1.32,-6.44 0.66,-2.92 1.52,-5.51 2.59,-7.84 1.07,-2.31 2.29,-4.36 3.64,-6.16 1.34,-1.81 2.82,-3.35 4.39,-4.62 1.58,-1.29 3.2,-2.36 4.85,-3.19 1.65,-0.82 3.35,-1.42 5.06,-1.81 1.72,-0.4 3.4,-0.58 5.03,-0.58 2.41,0 4.54,0.31 6.42,0.94 1.85,0.63 3.46,1.47 4.75,2.48 1.3,1.04 2.29,2.21 2.98,3.48 0.68,1.3 1.04,2.62 1.04,3.96 0,1.04 -0.18,1.95 -0.51,2.79 -0.33,0.81 -0.79,1.5 -1.37,2.05 -0.58,0.56 -1.27,0.99 -2.03,1.27 -0.76,0.31 -1.6,0.46 -2.46,0.46 -1.14,0 -2.34,-0.28 -3.61,-0.86l-0.15 -0.4c0.48,-1.09 0.84,-2.03 1.06,-2.86 0.23,-0.82 0.36,-1.65 0.36,-2.51 0,-1.19 -0.26,-2.21 -0.74,-3.07 -0.48,-0.86 -1.12,-1.55 -1.88,-2.11 -0.78,-0.53 -1.65,-0.94 -2.61,-1.19 -0.97,-0.25 -1.9,-0.35 -2.84,-0.35 -2.77,0 -5.13,0.61 -7.06,1.85 -1.9,1.24 -3.5,2.95 -4.8,5.1 -1.27,2.18 -2.29,4.72 -3.03,7.66 -0.73,2.94 -1.29,6.09 -1.7,9.49 -0.39,3.39 -0.66,6.95 -0.82,10.65 -0.15,3.7 -0.31,7.4 -0.43,11.08zm38.78 29.62c0,-2.51 0.25,-5.05 0.78,-7.63 0.51,-2.56 1.3,-5.07 2.31,-7.48 1.01,-2.41 2.26,-4.67 3.75,-6.8 1.5,-2.1 3.23,-3.96 5.21,-5.55 1.96,-1.57 4.14,-2.84 6.53,-3.76 2.41,-0.91 5.03,-1.37 7.87,-1.37 3.17,0 5.97,0.66 8.41,2.01 2.47,1.34 4.49,3.09 6.17,5.3 1.65,2.18 2.92,4.69 3.76,7.48 0.86,2.79 1.3,5.65 1.3,8.57 0,2.51 -0.26,5.05 -0.79,7.63 -0.51,2.56 -1.3,5.07 -2.31,7.48 -1.05,2.41 -2.31,4.67 -3.81,6.8 -1.5,2.1 -3.22,3.95 -5.18,5.55 -1.96,1.57 -4.14,2.84 -6.55,3.75 -2.41,0.91 -5.02,1.37 -7.84,1.37 -3.18,0 -6,-0.66 -8.44,-2.01 -2.44,-1.34 -4.49,-3.09 -6.15,-5.3 -1.62,-2.18 -2.89,-4.69 -3.73,-7.48 -0.86,-2.79 -1.29,-5.65 -1.29,-8.57zm8.89 -3.53c0,1.67 0.12,3.37 0.4,5.12 0.25,1.72 0.66,3.4 1.19,5 0.56,1.62 1.22,3.12 2.03,4.52 0.81,1.42 1.75,2.64 2.87,3.68 1.09,1.04 2.34,1.85 3.71,2.44 1.37,0.61 2.89,0.91 4.57,0.91 1.8,0 3.4,-0.41 4.77,-1.19 1.37,-0.76 2.57,-1.8 3.56,-3.09 1.01,-1.3 1.85,-2.76 2.51,-4.41 0.66,-1.67 1.17,-3.37 1.58,-5.15 0.41,-1.77 0.68,-3.53 0.84,-5.25 0.16,-1.75 0.24,-3.35 0.24,-4.8 0,-1.72 -0.13,-3.42 -0.39,-5.15 -0.25,-1.72 -0.66,-3.4 -1.22,-5 -0.53,-1.6 -1.22,-3.09 -2.01,-4.49 -0.81,-1.4 -1.78,-2.62 -2.87,-3.63 -1.12,-1.04 -2.36,-1.85 -3.74,-2.44 -1.37,-0.61 -2.9,-0.89 -4.54,-0.89 -1.81,0 -3.41,0.38 -4.78,1.15 -1.39,0.76 -2.56,1.8 -3.58,3.09 -1.01,1.27 -1.83,2.74 -2.49,4.41 -0.66,1.65 -1.19,3.37 -1.57,5.12 -0.41,1.75 -0.69,3.5 -0.84,5.25 -0.18,1.75 -0.25,3.35 -0.25,4.79zm73.5 25.85l-0.59 -0.03c0.21,-2.36 0.39,-4.92 0.56,-7.71 0.18,-2.77 0.33,-5.58 0.48,-8.45 0.15,-2.86 0.28,-5.68 0.38,-8.5 0.13,-2.82 0.23,-5.45 0.31,-7.89 0.1,-2.44 0.15,-4.62 0.18,-6.54 0.05,-1.95 0.08,-3.47 0.08,-4.59 0,-0.91 -0.05,-1.7 -0.13,-2.36 -0.07,-0.68 -0.22,-1.24 -0.51,-1.67 -0.25,-0.46 -0.63,-0.78 -1.12,-0.99 -0.51,-0.2 -1.17,-0.33 -2.01,-0.33 -0.43,0 -0.87,0.03 -1.32,0.08 -0.43,0.05 -0.94,0.13 -1.47,0.23 -0.56,0.1 -1.17,0.23 -1.85,0.41 -0.68,0.15 -1.48,0.33 -2.36,0.56l-0.56 -2.66c4.11,-1.5 7.47,-2.54 10,-3.15 2.57,-0.61 4.29,-0.91 5.18,-0.91 1.63,0 2.82,0.48 3.5,1.44 0.71,0.94 1.07,2.36 1.07,4.24 0,0.18 -0.02,0.68 -0.07,1.52 -0.05,0.86 -0.1,1.95 -0.21,3.3 -0.07,1.34 -0.18,2.92 -0.31,4.69 -0.12,1.8 -0.28,3.7 -0.43,5.76 -0.18,2.03 -0.35,4.15 -0.53,6.39 -0.2,2.21 -0.43,4.41 -0.64,6.62l0.35 0.02c1.19,-4.85 2.54,-9.36 4.04,-13.57 1.5,-4.18 3.2,-7.84 5.06,-10.93 1.88,-3.09 3.93,-5.53 6.2,-7.3 2.23,-1.78 4.69,-2.67 7.36,-2.67 0.96,0 1.83,0.15 2.64,0.46 0.84,0.28 1.52,0.71 2.13,1.24 0.58,0.53 1.07,1.17 1.42,1.88 0.33,0.73 0.51,1.55 0.51,2.41 0,1.12 -0.23,2.18 -0.71,3.22 -0.51,1.01 -1.27,1.93 -2.31,2.71l-0.28 0c-1.04,-0.86 -2.04,-1.5 -2.97,-1.87 -0.91,-0.38 -1.91,-0.56 -2.94,-0.56 -1.12,0 -2.21,0.2 -3.25,0.64 -1.04,0.4 -1.98,1.01 -2.84,1.8 -1.42,1.3 -2.74,3 -3.96,5.13 -1.22,2.1 -2.31,4.46 -3.33,7.02 -0.99,2.59 -1.9,5.3 -2.72,8.12 -0.79,2.84 -1.5,5.6 -2.08,8.29 -0.59,2.69 -1.05,5.22 -1.4,7.58 -0.38,2.36 -0.64,4.34 -0.76,5.96l-7.8 0.97zm133.76 -0.64c-0.63,-2.36 -1.32,-4.82 -2.05,-7.38 -0.74,-2.59 -1.48,-5.18 -2.23,-7.76 -0.77,-2.61 -1.52,-5.18 -2.26,-7.71 -0.76,-2.51 -1.5,-4.92 -2.21,-7.2 -0.71,-2.28 -1.37,-4.38 -2.01,-6.34 -0.63,-1.93 -1.19,-3.6 -1.7,-5.02 -0.51,-1.47 -1.01,-2.67 -1.5,-3.58 -0.48,-0.94 -0.99,-1.67 -1.5,-2.18 -0.53,-0.53 -1.06,-0.88 -1.65,-1.09 -0.56,-0.18 -1.19,-0.28 -1.87,-0.28 -0.82,0 -1.65,0.07 -2.57,0.25 -0.89,0.18 -1.98,0.41 -3.25,0.71l-0.56 -2.69c1.5,-0.53 2.94,-1.04 4.37,-1.47 1.42,-0.46 2.74,-0.84 3.96,-1.17 1.22,-0.3 2.28,-0.56 3.25,-0.73 0.94,-0.18 1.67,-0.25 2.24,-0.25 0.63,0 1.24,0.1 1.83,0.33 0.59,0.22 1.15,0.61 1.7,1.17 0.56,0.55 1.12,1.32 1.63,2.31 0.53,0.97 1.04,2.21 1.57,3.7 0.33,0.94 0.76,2.13 1.25,3.6 0.48,1.5 0.99,3.15 1.57,5.02 0.56,1.88 1.17,3.91 1.83,6.12 0.64,2.2 1.3,4.51 1.96,6.9 0.63,2.38 1.29,4.85 1.96,7.33 0.64,2.51 1.24,4.97 1.86,7.43 1.24,-3.24 2.53,-6.62 3.88,-10.17 1.35,-3.53 2.72,-7.08 4.12,-10.63 1.42,-3.58 2.82,-7.1 4.19,-10.6 1.4,-3.53 2.74,-6.87 4.01,-10.07 0.23,-0.53 0.53,-0.99 0.91,-1.32 0.38,-0.35 0.82,-0.64 1.3,-0.84 0.46,-0.23 0.97,-0.35 1.47,-0.46 0.51,-0.07 1.02,-0.12 1.5,-0.12 0.82,0 1.63,0.12 2.39,0.35 0.76,0.23 1.5,0.53 2.18,0.86 -1.12,1.82 -2.26,3.83 -3.48,6.04 -1.2,2.23 -2.44,4.59 -3.68,7.1 -1.27,2.51 -2.54,5.15 -3.84,7.87 -1.27,2.71 -2.54,5.5 -3.81,8.34 -1.27,2.84 -2.51,5.68 -3.74,8.55 -1.21,2.86 -2.41,5.68 -3.55,8.45 -1.17,2.79 -2.26,5.55 -3.3,8.29 -1.04,2.74 -2.05,5.4 -3.04,7.96 -0.99,2.56 -1.98,5.02 -2.93,7.38 -0.96,2.38 -1.93,4.59 -2.92,6.64 -0.94,1.9 -1.96,3.68 -3.02,5.33 -1.06,1.65 -2.23,3.07 -3.53,4.26 -1.3,1.22 -2.72,2.16 -4.27,2.87 -1.55,0.68 -3.28,1.04 -5.16,1.04 -1.17,0 -2.21,-0.18 -3.15,-0.48 -0.94,-0.3 -1.75,-0.71 -2.41,-1.21 -0.66,-0.51 -1.14,-1.1 -1.5,-1.78 -0.35,-0.66 -0.53,-1.37 -0.53,-2.1 0,-0.81 0.25,-1.67 0.73,-2.56 0.48,-0.86 1.12,-1.52 1.91,-1.98 1.04,0.64 2.11,1.12 3.17,1.37 1.06,0.28 2.03,0.41 2.86,0.41 2.03,0 3.84,-0.53 5.41,-1.65 1.58,-1.09 3.05,-2.74 4.44,-4.94 1.4,-2.21 2.77,-4.97 4.2,-8.29 1.39,-3.33 2.94,-7.21 4.67,-11.67l0.73 -1.98 -1.83 -0.25zm54.07 -21.68c0,-2.51 0.25,-5.05 0.78,-7.63 0.51,-2.56 1.3,-5.07 2.31,-7.48 1.02,-2.41 2.26,-4.67 3.76,-6.8 1.5,-2.1 3.22,-3.96 5.21,-5.55 1.95,-1.57 4.13,-2.84 6.52,-3.76 2.42,-0.91 5.03,-1.37 7.88,-1.37 3.17,0 5.97,0.66 8.4,2.01 2.47,1.34 4.5,3.09 6.17,5.3 1.65,2.18 2.93,4.69 3.76,7.48 0.86,2.79 1.3,5.65 1.3,8.57 0,2.51 -0.25,5.05 -0.79,7.63 -0.51,2.56 -1.29,5.07 -2.31,7.48 -1.04,2.41 -2.31,4.67 -3.81,6.8 -1.5,2.1 -3.23,3.95 -5.18,5.55 -1.96,1.57 -4.14,2.84 -6.55,3.75 -2.42,0.91 -5.03,1.37 -7.85,1.37 -3.17,0 -5.99,-0.66 -8.43,-2.01 -2.44,-1.34 -4.49,-3.09 -6.15,-5.3 -1.63,-2.18 -2.9,-4.69 -3.74,-7.48 -0.86,-2.79 -1.29,-5.65 -1.29,-8.57zm8.89 -3.53c0,1.67 0.13,3.37 0.41,5.12 0.25,1.72 0.66,3.4 1.19,5 0.55,1.62 1.22,3.12 2.03,4.52 0.82,1.42 1.75,2.64 2.87,3.68 1.09,1.04 2.34,1.85 3.71,2.44 1.37,0.61 2.89,0.91 4.57,0.91 1.8,0 3.41,-0.41 4.77,-1.19 1.38,-0.76 2.57,-1.8 3.56,-3.09 1.01,-1.3 1.85,-2.76 2.51,-4.41 0.66,-1.67 1.17,-3.37 1.57,-5.15 0.41,-1.77 0.69,-3.53 0.84,-5.25 0.15,-1.75 0.23,-3.35 0.23,-4.8 0,-1.72 -0.13,-3.42 -0.38,-5.15 -0.25,-1.72 -0.66,-3.4 -1.22,-5 -0.53,-1.6 -1.21,-3.09 -2.01,-4.49 -0.81,-1.4 -1.78,-2.62 -2.87,-3.63 -1.11,-1.04 -2.36,-1.85 -3.73,-2.44 -1.37,-0.61 -2.89,-0.89 -4.54,-0.89 -1.81,0 -3.4,0.38 -4.78,1.15 -1.4,0.76 -2.56,1.8 -3.58,3.09 -1.01,1.27 -1.83,2.74 -2.49,4.41 -0.66,1.65 -1.2,3.37 -1.58,5.12 -0.4,1.75 -0.68,3.5 -0.84,5.25 -0.18,1.75 -0.26,3.35 -0.26,4.79zm83.23 -21.64c0,1.67 -0.08,3.48 -0.18,5.4 -0.1,1.93 -0.26,3.88 -0.41,5.86 -0.15,1.98 -0.33,3.96 -0.54,5.91 -0.18,1.98 -0.35,3.86 -0.51,5.6 -0.15,1.75 -0.3,3.37 -0.4,4.85 -0.1,1.47 -0.18,2.71 -0.18,3.7 0,2.94 0.56,5.1 1.68,6.46 1.12,1.34 2.62,2.03 4.47,2.03 2.11,0 4.27,-1.12 6.48,-3.4 2.21,-2.26 4.32,-5.58 6.32,-9.95 2.01,-4.34 3.7,-9.25 5.13,-14.68 1.42,-5.42 2.31,-11.28 2.72,-17.6l7.9 -0.96 0.58 0.05c-0.23,2.36 -0.43,4.84 -0.61,7.48 -0.2,2.64 -0.35,5.28 -0.51,7.91 -0.15,2.64 -0.25,5.22 -0.33,7.73 -0.08,2.54 -0.13,4.87 -0.13,7 0,4.03 0.26,7.33 0.71,9.89 0.48,2.56 1.09,4.59 1.83,6.06 0.74,1.47 1.6,2.49 2.54,3.04 0.97,0.56 1.93,0.84 2.89,0.84 0.56,0 1.15,-0.08 1.7,-0.23 0.56,-0.15 1.07,-0.33 1.58,-0.53 0.48,-0.2 0.94,-0.43 1.34,-0.69 0.41,-0.25 0.77,-0.48 1.07,-0.66l1.21 1.7c-0.71,0.74 -1.52,1.44 -2.44,2.1 -0.91,0.66 -1.9,1.22 -2.92,1.7 -1.01,0.48 -2.08,0.86 -3.19,1.14 -1.1,0.28 -2.24,0.41 -3.38,0.41 -1.43,0 -2.82,-0.28 -4.19,-0.86 -1.34,-0.56 -2.54,-1.52 -3.58,-2.87 -1.04,-1.32 -1.88,-3.12 -2.51,-5.35 -0.64,-2.2 -0.95,-5 -0.95,-8.32 0,-1.07 0.03,-2.13 0.08,-3.22 0.05,-1.09 0.13,-2.23 0.2,-3.45 0.1,-1.22 0.26,-2.53 0.41,-3.93 0.15,-1.4 0.36,-2.95 0.59,-4.62l-0.44 -0.07c-1.67,6.21 -3.5,11.44 -5.48,15.65 -1.96,4.21 -3.99,7.58 -6.05,10.17 -2.08,2.56 -4.16,4.41 -6.25,5.5 -2.08,1.12 -4.06,1.67 -5.94,1.67 -1.42,0 -2.77,-0.25 -4.09,-0.74 -1.3,-0.48 -2.44,-1.27 -3.45,-2.38 -1.01,-1.09 -1.83,-2.56 -2.44,-4.36 -0.61,-1.8 -0.91,-4.03 -0.91,-6.67 0,-1.75 0.1,-3.75 0.28,-6.06 0.2,-2.28 0.43,-4.72 0.66,-7.31 0.23,-2.59 0.46,-5.27 0.66,-8.01 0.21,-2.76 0.28,-5.51 0.28,-8.22 0,-1.06 -0.03,-2.03 -0.1,-2.82 -0.07,-0.78 -0.23,-1.44 -0.48,-1.95 -0.25,-0.53 -0.61,-0.91 -1.09,-1.17 -0.49,-0.25 -1.15,-0.38 -2.01,-0.38 -0.84,0 -1.93,0.13 -3.27,0.38 -1.35,0.25 -2.77,0.58 -4.27,1.01l-0.56 -2.69c2.03,-0.71 3.94,-1.34 5.66,-1.88 1.75,-0.53 3.33,-0.96 4.7,-1.32 1.37,-0.33 2.54,-0.61 3.5,-0.79 0.94,-0.15 1.65,-0.25 2.09,-0.25 0.91,0 1.62,0.18 2.21,0.48 0.56,0.33 1.01,0.79 1.37,1.42 0.36,0.61 0.59,1.37 0.74,2.23 0.13,0.86 0.2,1.85 0.2,2.96zm75.96 47.48l-0.58 -0.03c0.2,-2.36 0.38,-4.92 0.56,-7.71 0.18,-2.77 0.33,-5.58 0.48,-8.45 0.15,-2.86 0.28,-5.68 0.38,-8.5 0.13,-2.82 0.23,-5.45 0.31,-7.89 0.1,-2.44 0.15,-4.62 0.18,-6.54 0.05,-1.95 0.08,-3.47 0.08,-4.59 0,-0.91 -0.05,-1.7 -0.13,-2.36 -0.08,-0.68 -0.23,-1.24 -0.51,-1.67 -0.26,-0.46 -0.64,-0.78 -1.12,-0.99 -0.51,-0.2 -1.17,-0.33 -2.01,-0.33 -0.43,0 -0.86,0.03 -1.32,0.08 -0.43,0.05 -0.94,0.13 -1.48,0.23 -0.55,0.1 -1.17,0.23 -1.85,0.41 -0.68,0.15 -1.48,0.33 -2.36,0.56l-0.56 -2.66c4.12,-1.5 7.47,-2.54 10,-3.15 2.57,-0.61 4.3,-0.91 5.18,-0.91 1.63,0 2.82,0.48 3.5,1.44 0.71,0.94 1.07,2.36 1.07,4.24 0,0.18 -0.02,0.68 -0.08,1.52 -0.05,0.86 -0.1,1.95 -0.2,3.3 -0.07,1.34 -0.18,2.92 -0.3,4.69 -0.13,1.8 -0.28,3.7 -0.43,5.76 -0.18,2.03 -0.35,4.15 -0.53,6.39 -0.2,2.21 -0.44,4.41 -0.64,6.62l0.35 0.02c1.19,-4.85 2.54,-9.36 4.04,-13.57 1.5,-4.18 3.2,-7.84 5.05,-10.93 1.88,-3.09 3.94,-5.53 6.2,-7.3 2.23,-1.78 4.69,-2.67 7.36,-2.67 0.96,0 1.83,0.15 2.64,0.46 0.84,0.28 1.52,0.71 2.13,1.24 0.59,0.53 1.07,1.17 1.43,1.88 0.33,0.73 0.51,1.55 0.51,2.41 0,1.12 -0.22,2.18 -0.71,3.22 -0.51,1.01 -1.27,1.93 -2.31,2.71l-0.28 0c-1.05,-0.86 -2.04,-1.5 -2.97,-1.87 -0.92,-0.38 -1.9,-0.56 -2.94,-0.56 -1.12,0 -2.21,0.2 -3.25,0.64 -1.04,0.4 -1.98,1.01 -2.84,1.8 -1.42,1.3 -2.74,3 -3.96,5.13 -1.22,2.1 -2.31,4.46 -3.33,7.02 -0.99,2.59 -1.91,5.3 -2.72,8.12 -0.79,2.84 -1.5,5.6 -2.08,8.29 -0.58,2.69 -1.04,5.22 -1.39,7.58 -0.38,2.36 -0.64,4.34 -0.77,5.96l-7.8 0.97zm123.43 -14.38c0.15,1.87 0.66,3.5 1.5,4.87 0.84,1.37 1.85,2.49 3.07,3.35 1.22,0.86 2.57,1.5 4.04,1.93 1.48,0.43 2.94,0.63 4.39,0.63 1.37,0 2.69,-0.18 3.97,-0.56 1.24,-0.38 2.36,-0.91 3.33,-1.6 0.97,-0.68 1.75,-1.54 2.34,-2.56 0.58,-1.02 0.86,-2.16 0.86,-3.42 0,-1.32 -0.3,-2.46 -0.91,-3.45 -0.63,-0.99 -1.45,-1.9 -2.49,-2.71 -1.04,-0.81 -2.26,-1.57 -3.64,-2.26 -1.37,-0.71 -2.82,-1.42 -4.29,-2.13 -1.32,-0.61 -2.64,-1.24 -3.97,-1.88 -1.34,-0.63 -2.61,-1.32 -3.86,-2.05 -1.24,-0.74 -2.41,-1.55 -3.48,-2.41 -1.09,-0.89 -2.03,-1.83 -2.82,-2.89 -0.81,-1.04 -1.45,-2.23 -1.91,-3.53 -0.45,-1.29 -0.68,-2.74 -0.68,-4.34 0,-1.7 0.31,-3.27 0.89,-4.72 0.58,-1.42 1.4,-2.71 2.44,-3.88 1.01,-1.14 2.21,-2.16 3.58,-3.02 1.34,-0.86 2.79,-1.6 4.32,-2.18 1.55,-0.58 3.13,-1.01 4.75,-1.29 1.62,-0.28 3.2,-0.43 4.75,-0.43 1.98,0 3.86,0.23 5.64,0.66 1.75,0.43 3.33,1.06 4.65,1.87 1.32,0.84 2.39,1.85 3.15,3.04 0.79,1.19 1.17,2.51 1.17,4.01 0,0.56 -0.1,1.19 -0.28,1.85 -0.2,0.69 -0.53,1.3 -1.01,1.88 -0.46,0.59 -1.1,1.07 -1.85,1.48 -0.77,0.4 -1.7,0.61 -2.82,0.63 -1.04,0 -2.13,-0.15 -3.28,-0.48l-0.13 -0.38c0.36,-0.79 0.62,-1.52 0.77,-2.18 0.12,-0.68 0.2,-1.29 0.2,-1.85 -0.02,-1.14 -0.31,-2.1 -0.86,-2.89 -0.56,-0.79 -1.27,-1.42 -2.11,-1.9 -0.84,-0.51 -1.78,-0.86 -2.79,-1.09 -1.04,-0.23 -2.06,-0.33 -3.05,-0.33 -1.75,0 -3.33,0.23 -4.72,0.71 -1.37,0.46 -2.57,1.09 -3.5,1.88 -0.97,0.78 -1.7,1.65 -2.21,2.64 -0.51,1.01 -0.76,2.03 -0.76,3.1 0,1.37 0.35,2.58 1.09,3.65 0.71,1.09 1.67,2.08 2.87,2.99 1.17,0.88 2.54,1.75 4.09,2.53 1.55,0.79 3.17,1.57 4.87,2.38 1.88,0.89 3.76,1.8 5.61,2.77 1.86,0.94 3.5,2.03 4.98,3.24 1.48,1.21 2.64,2.61 3.56,4.19 0.91,1.57 1.34,3.42 1.34,5.55 0,2.53 -0.56,4.82 -1.68,6.79 -1.14,1.98 -2.64,3.66 -4.52,5.02 -1.88,1.34 -4.07,2.38 -6.5,3.09 -2.44,0.71 -4.98,1.07 -7.6,1.07 -1.32,0 -2.69,-0.1 -4.09,-0.31 -1.39,-0.2 -2.74,-0.51 -4.06,-0.89 -1.32,-0.4 -2.56,-0.88 -3.74,-1.47 -1.19,-0.58 -2.21,-1.24 -3.1,-2 -0.89,-0.76 -1.57,-1.6 -2.08,-2.54 -0.51,-0.91 -0.76,-1.95 -0.76,-3.07 0,-0.96 0.2,-1.77 0.61,-2.43 0.4,-0.68 0.94,-1.22 1.62,-1.65 0.66,-0.41 1.42,-0.74 2.24,-0.94 0.84,-0.2 1.7,-0.33 2.57,-0.35l0.31 0.25z"/>
   <path class="fil4" d="M701.39 445.67c1.75,-0.61 3.46,-1.17 5.08,-1.67 1.63,-0.51 3.1,-0.97 4.47,-1.32 1.37,-0.38 2.56,-0.66 3.61,-0.86 1.04,-0.21 1.85,-0.31 2.46,-0.31 1.45,0 2.57,0.43 3.35,1.29 0.81,0.84 1.22,2.31 1.22,4.39 0,0.51 -0.05,1.57 -0.15,3.17 -0.1,1.63 -0.23,3.68 -0.43,6.12 -0.18,2.46 -0.41,5.27 -0.68,8.42 -0.25,3.15 -0.58,6.46 -0.92,10.02l0.21 0.05c1.75,-6.32 3.61,-11.59 5.56,-15.86 1.96,-4.28 3.97,-7.73 5.99,-10.34 2.03,-2.64 4.07,-4.52 6.12,-5.63 2.05,-1.14 4.06,-1.7 5.99,-1.7 1.73,0 3.17,0.43 4.37,1.27 1.17,0.84 2.13,1.96 2.89,3.3 0.73,1.37 1.3,2.92 1.63,4.64 0.35,1.72 0.53,3.47 0.53,5.25 0,1.57 -0.05,3.22 -0.15,4.97 -0.1,1.72 -0.22,3.45 -0.38,5.15 -0.15,1.7 -0.31,3.33 -0.46,4.85 -0.15,1.52 -0.3,2.84 -0.43,3.98l0.23 0.05c1.73,-6.39 3.58,-11.77 5.56,-16.08 1.95,-4.31 3.99,-7.79 6.02,-10.42 2.06,-2.61 4.12,-4.49 6.17,-5.63 2.06,-1.12 4.04,-1.67 5.97,-1.67 1.24,0 2.46,0.25 3.63,0.76 1.15,0.53 2.18,1.37 3.1,2.51 0.89,1.17 1.63,2.64 2.18,4.43 0.54,1.83 0.82,3.99 0.82,6.54 0,0.71 -0.05,1.7 -0.13,2.97 -0.11,1.24 -0.2,2.64 -0.33,4.16 -0.13,1.54 -0.26,3.17 -0.43,4.89 -0.15,1.72 -0.31,3.4 -0.44,5.07 -0.1,1.65 -0.22,3.24 -0.3,4.74 -0.08,1.5 -0.13,2.79 -0.13,3.88 0,1.93 0.08,3.5 0.23,4.72 0.18,1.22 0.43,2.16 0.81,2.87 0.38,0.71 0.86,1.19 1.47,1.44 0.64,0.28 1.4,0.41 2.29,0.41 1.29,0 2.61,-0.18 4.01,-0.53 1.39,-0.38 2.79,-0.87 4.21,-1.52l0.69 1.93c-0.89,0.73 -2.01,1.47 -3.38,2.2 -1.37,0.74 -2.79,1.42 -4.29,2.03 -1.5,0.63 -3,1.14 -4.49,1.52 -1.48,0.38 -2.8,0.55 -3.94,0.55 -1.34,0 -2.39,-0.35 -3.15,-1.06 -0.79,-0.71 -1.34,-1.7 -1.75,-2.94 -0.38,-1.24 -0.61,-2.69 -0.73,-4.34 -0.1,-1.67 -0.15,-3.45 -0.15,-5.35 0,-2.31 0.08,-4.72 0.23,-7.25 0.15,-2.51 0.35,-4.92 0.53,-7.21 0.2,-2.28 0.38,-4.34 0.56,-6.19 0.15,-1.85 0.23,-3.25 0.23,-4.19 0,-2.69 -0.48,-4.72 -1.42,-6.06 -0.97,-1.34 -2.26,-2.03 -3.89,-2.03 -1.27,0 -2.61,0.61 -4.03,1.8 -1.42,1.19 -2.87,2.86 -4.3,4.97 -1.42,2.1 -2.79,4.59 -4.11,7.43 -1.34,2.87 -2.54,5.96 -3.61,9.31 -1.07,3.35 -1.96,6.85 -2.69,10.5 -0.74,3.66 -1.19,7.31 -1.42,10.98l-7.77 0.97 -0.61 -0.03c0.28,-5.2 0.53,-9.81 0.76,-13.82 0.22,-4.03 0.45,-7.53 0.63,-10.53 0.18,-2.99 0.33,-5.53 0.46,-7.61 0.1,-2.08 0.15,-3.8 0.15,-5.18 0,-2.76 -0.49,-4.87 -1.43,-6.26 -0.97,-1.42 -2.18,-2.13 -3.66,-2.13 -1.32,0 -2.72,0.58 -4.16,1.78 -1.45,1.17 -2.87,2.79 -4.3,4.87 -1.42,2.08 -2.77,4.54 -4.06,7.38 -1.32,2.84 -2.49,5.91 -3.55,9.21 -1.04,3.3 -1.93,6.75 -2.64,10.4 -0.68,3.63 -1.17,7.28 -1.37,10.96l-7.8 0.97 -0.58 -0.03c0.2,-2.36 0.38,-4.92 0.56,-7.71 0.18,-2.77 0.33,-5.58 0.48,-8.45 0.15,-2.86 0.28,-5.68 0.38,-8.5 0.13,-2.82 0.23,-5.45 0.31,-7.89 0.1,-2.44 0.15,-4.62 0.18,-6.54 0.05,-1.95 0.08,-3.47 0.08,-4.59 0,-1.02 -0.08,-1.85 -0.23,-2.56 -0.15,-0.68 -0.38,-1.24 -0.68,-1.65 -0.33,-0.41 -0.71,-0.68 -1.17,-0.86 -0.48,-0.18 -1.04,-0.28 -1.67,-0.28 -0.91,0 -1.98,0.13 -3.2,0.38 -1.24,0.25 -2.67,0.58 -4.24,1.01l-0.56 -2.69zm121.05 28.03c0,-2.51 0.25,-5.05 0.78,-7.63 0.51,-2.56 1.3,-5.07 2.31,-7.48 1.01,-2.41 2.26,-4.67 3.75,-6.8 1.5,-2.1 3.23,-3.96 5.21,-5.55 1.95,-1.57 4.14,-2.84 6.52,-3.76 2.41,-0.91 5.03,-1.37 7.87,-1.37 3.17,0 5.97,0.66 8.41,2.01 2.47,1.34 4.49,3.09 6.17,5.3 1.65,2.18 2.92,4.69 3.76,7.48 0.86,2.79 1.3,5.65 1.3,8.57 0,2.51 -0.26,5.05 -0.79,7.63 -0.51,2.56 -1.3,5.07 -2.31,7.48 -1.04,2.41 -2.31,4.67 -3.81,6.8 -1.5,2.1 -3.22,3.95 -5.18,5.55 -1.96,1.57 -4.14,2.84 -6.55,3.75 -2.41,0.91 -5.02,1.37 -7.84,1.37 -3.18,0 -6,-0.66 -8.44,-2.01 -2.44,-1.34 -4.49,-3.09 -6.15,-5.3 -1.62,-2.18 -2.89,-4.69 -3.73,-7.48 -0.86,-2.79 -1.29,-5.65 -1.29,-8.57zm8.89 -3.53c0,1.67 0.12,3.37 0.4,5.12 0.26,1.72 0.66,3.4 1.19,5 0.56,1.62 1.22,3.12 2.03,4.52 0.81,1.42 1.75,2.64 2.87,3.68 1.09,1.04 2.34,1.85 3.71,2.44 1.37,0.61 2.9,0.91 4.57,0.91 1.8,0 3.4,-0.41 4.77,-1.19 1.37,-0.76 2.57,-1.8 3.56,-3.09 1.01,-1.3 1.85,-2.76 2.51,-4.41 0.66,-1.67 1.17,-3.37 1.57,-5.15 0.41,-1.77 0.68,-3.53 0.84,-5.25 0.15,-1.75 0.23,-3.35 0.23,-4.8 0,-1.72 -0.13,-3.42 -0.39,-5.15 -0.25,-1.72 -0.66,-3.4 -1.22,-5 -0.53,-1.6 -1.22,-3.09 -2.01,-4.49 -0.81,-1.4 -1.78,-2.62 -2.86,-3.63 -1.12,-1.04 -2.36,-1.85 -3.73,-2.44 -1.37,-0.61 -2.9,-0.89 -4.54,-0.89 -1.81,0 -3.41,0.38 -4.78,1.15 -1.39,0.76 -2.56,1.8 -3.58,3.09 -1.01,1.27 -1.83,2.74 -2.49,4.41 -0.66,1.65 -1.19,3.37 -1.57,5.12 -0.41,1.75 -0.69,3.5 -0.84,5.25 -0.18,1.75 -0.25,3.35 -0.25,4.79zm67.56 3.53c0,-2.51 0.25,-5.05 0.79,-7.63 0.51,-2.56 1.3,-5.07 2.31,-7.48 1.01,-2.41 2.26,-4.67 3.75,-6.8 1.5,-2.1 3.23,-3.96 5.21,-5.55 1.96,-1.57 4.14,-2.84 6.53,-3.76 2.41,-0.91 5.03,-1.37 7.87,-1.37 3.17,0 5.97,0.66 8.4,2.01 2.47,1.34 4.5,3.09 6.17,5.3 1.65,2.18 2.92,4.69 3.76,7.48 0.87,2.79 1.3,5.65 1.3,8.57 0,2.51 -0.26,5.05 -0.79,7.63 -0.51,2.56 -1.3,5.07 -2.31,7.48 -1.05,2.41 -2.31,4.67 -3.81,6.8 -1.5,2.1 -3.22,3.95 -5.18,5.55 -1.96,1.57 -4.14,2.84 -6.56,3.75 -2.41,0.91 -5.02,1.37 -7.84,1.37 -3.17,0 -5.99,-0.66 -8.43,-2.01 -2.44,-1.34 -4.49,-3.09 -6.15,-5.3 -1.62,-2.18 -2.89,-4.69 -3.73,-7.48 -0.86,-2.79 -1.3,-5.65 -1.3,-8.57zm8.89 -3.53c0,1.67 0.12,3.37 0.4,5.12 0.25,1.72 0.66,3.4 1.19,5 0.56,1.62 1.22,3.12 2.03,4.52 0.82,1.42 1.75,2.64 2.87,3.68 1.09,1.04 2.34,1.85 3.71,2.44 1.37,0.61 2.89,0.91 4.57,0.91 1.8,0 3.4,-0.41 4.77,-1.19 1.37,-0.76 2.57,-1.8 3.56,-3.09 1.01,-1.3 1.85,-2.76 2.51,-4.41 0.66,-1.67 1.17,-3.37 1.58,-5.15 0.41,-1.77 0.68,-3.53 0.84,-5.25 0.15,-1.75 0.23,-3.35 0.23,-4.8 0,-1.72 -0.13,-3.42 -0.38,-5.15 -0.25,-1.72 -0.66,-3.4 -1.22,-5 -0.53,-1.6 -1.22,-3.09 -2.01,-4.49 -0.81,-1.4 -1.78,-2.62 -2.86,-3.63 -1.12,-1.04 -2.36,-1.85 -3.74,-2.44 -1.37,-0.61 -2.9,-0.89 -4.54,-0.89 -1.8,0 -3.4,0.38 -4.78,1.15 -1.39,0.76 -2.56,1.8 -3.58,3.09 -1.01,1.27 -1.83,2.74 -2.49,4.41 -0.66,1.65 -1.19,3.37 -1.58,5.12 -0.4,1.75 -0.68,3.5 -0.84,5.25 -0.18,1.75 -0.25,3.35 -0.25,4.79zm87.08 -55.44c-1.04,4.72 -1.91,9.56 -2.61,14.58 -0.72,5.02 -1.32,9.97 -1.81,14.84 1.17,0.05 2.29,0.1 3.4,0.13 1.09,0.02 2.14,0.02 3.07,0.05 0.96,0.02 1.83,0.05 2.62,0.05 0.79,0 1.42,0 1.96,0 2.26,0 4.09,-0.13 5.54,-0.41 0.13,0.41 0.23,0.81 0.31,1.14 0.07,0.35 0.1,0.68 0.1,0.97 0,1.09 -0.46,1.8 -1.34,2.13 -0.91,0.33 -2.21,0.48 -3.94,0.48 -1.63,0 -3.46,-0.1 -5.49,-0.31 -2.01,-0.2 -4.24,-0.38 -6.63,-0.56 -0.28,2.67 -0.51,5.22 -0.68,7.76 -0.2,2.51 -0.36,4.87 -0.46,7.1 -0.11,2.23 -0.21,4.31 -0.26,6.21 -0.05,1.9 -0.05,3.55 -0.05,4.97 0,2.67 0.12,5.02 0.4,7.1 0.26,2.08 0.74,3.83 1.45,5.3 0.68,1.45 1.65,2.53 2.87,3.32 1.19,0.76 2.74,1.14 4.6,1.14 1.35,0 2.84,-0.23 4.5,-0.71 1.64,-0.46 3.53,-1.22 5.63,-2.25 0.66,0.66 1.05,1.47 1.15,2.46 -1.55,1.01 -3.1,1.93 -4.65,2.76 -1.58,0.81 -3.1,1.52 -4.62,2.13 -1.5,0.58 -2.97,1.04 -4.4,1.37 -1.39,0.33 -2.74,0.48 -4.01,0.48 -1.65,0 -3.17,-0.31 -4.54,-0.91 -1.37,-0.61 -2.56,-1.67 -3.58,-3.22 -0.99,-1.54 -1.78,-3.62 -2.34,-6.26 -0.55,-2.63 -0.84,-5.93 -0.84,-9.96 0,-2.23 0.03,-4.56 0.11,-6.95 0.07,-2.41 0.18,-4.82 0.3,-7.28 0.13,-2.44 0.28,-4.89 0.48,-7.36 0.2,-2.43 0.43,-4.87 0.66,-7.23 -1.96,0.02 -3.76,0.1 -5.44,0.23 -1.67,0.15 -3.1,0.35 -4.29,0.66 -0.08,-0.15 -0.13,-0.33 -0.13,-0.53 0,-0.51 0.25,-0.99 0.76,-1.47 0.51,-0.45 1.22,-0.86 2.14,-1.24 0.89,-0.35 1.98,-0.66 3.25,-0.91 1.28,-0.25 2.64,-0.43 4.16,-0.53 0.56,-5.18 1.17,-10.07 1.83,-14.66 0.64,-4.62 1.3,-8.73 1.93,-12.36 0.13,-0.63 0.35,-1.17 0.69,-1.6 0.33,-0.4 0.73,-0.73 1.17,-0.99 0.46,-0.26 0.94,-0.43 1.45,-0.53 0.54,-0.1 1.04,-0.15 1.52,-0.15 0.84,0 1.57,0.1 2.23,0.28 0.64,0.18 1.27,0.41 1.83,0.74zm51.4 60.59c1.91,-6.26 3.94,-11.56 6.07,-15.93 2.13,-4.36 4.32,-7.91 6.55,-10.6 2.21,-2.71 4.42,-4.69 6.63,-5.91 2.21,-1.19 4.32,-1.8 6.32,-1.8 1.39,0 2.74,0.25 4.03,0.79 1.27,0.53 2.42,1.37 3.43,2.46 1.01,1.11 1.8,2.56 2.41,4.31 0.58,1.78 0.89,3.88 0.89,6.32 0,0.76 -0.05,1.75 -0.13,3.04 -0.1,1.27 -0.2,2.69 -0.33,4.26 -0.13,1.57 -0.25,3.22 -0.43,4.97 -0.15,1.72 -0.31,3.45 -0.43,5.12 -0.1,1.67 -0.23,3.27 -0.31,4.8 -0.08,1.52 -0.13,2.82 -0.13,3.9 0,1.93 0.08,3.5 0.23,4.72 0.18,1.22 0.44,2.16 0.82,2.87 0.35,0.71 0.86,1.19 1.47,1.44 0.64,0.28 1.4,0.41 2.29,0.41 1.3,0 2.62,-0.18 4.01,-0.53 1.4,-0.38 2.8,-0.87 4.22,-1.52l0.69 1.93c-0.89,0.73 -2.01,1.47 -3.38,2.2 -1.37,0.74 -2.8,1.42 -4.3,2.03 -1.5,0.63 -3,1.14 -4.49,1.52 -1.47,0.38 -2.79,0.55 -3.94,0.55 -1.34,0 -2.39,-0.35 -3.15,-1.06 -0.78,-0.71 -1.34,-1.7 -1.75,-2.94 -0.38,-1.24 -0.61,-2.69 -0.74,-4.34 -0.1,-1.67 -0.15,-3.45 -0.15,-5.35 0,-2.31 0.07,-4.69 0.22,-7.13 0.15,-2.46 0.33,-4.82 0.53,-7.08 0.18,-2.25 0.35,-4.31 0.51,-6.19 0.15,-1.85 0.26,-3.37 0.26,-4.51 0,-2.74 -0.54,-4.8 -1.6,-6.17 -1.07,-1.39 -2.52,-2.08 -4.32,-2.08 -1.42,0 -2.92,0.61 -4.52,1.83 -1.6,1.21 -3.2,2.89 -4.78,5 -1.57,2.13 -3.1,4.61 -4.54,7.51 -1.48,2.89 -2.8,6.01 -3.94,9.36 -1.17,3.35 -2.14,6.87 -2.92,10.53 -0.76,3.68 -1.24,7.33 -1.45,11.01l-7.92 0.97 -0.58 -0.03c0.15,-2.94 0.31,-6.16 0.48,-9.69 0.2,-3.52 0.41,-7.28 0.61,-11.24 0.21,-3.96 0.44,-8.09 0.66,-12.4 0.25,-4.29 0.48,-8.67 0.71,-13.11 0.22,-4.46 0.48,-8.95 0.73,-13.49 0.23,-4.54 0.48,-9 0.71,-13.44 0.23,-4.41 0.48,-8.75 0.68,-12.98 0.23,-4.24 0.43,-8.27 0.64,-12.15 0.02,-0.58 0.2,-1.09 0.53,-1.52 0.31,-0.46 0.74,-0.79 1.25,-1.04 0.51,-0.28 1.09,-0.46 1.73,-0.58 0.64,-0.13 1.32,-0.2 2.01,-0.2 1.5,0 3.05,0.41 4.7,1.19 -0.58,5.07 -1.09,9.69 -1.54,13.92 -0.44,4.21 -0.84,8.14 -1.2,11.74 -0.35,3.6 -0.68,6.95 -0.96,10.09 -0.28,3.12 -0.56,6.09 -0.79,8.95 -0.22,2.87 -0.45,5.66 -0.66,8.4 -0.18,2.71 -0.38,5.48 -0.58,8.29 -0.2,2.81 -0.4,5.73 -0.61,8.77 -0.23,3.02 -0.46,6.29 -0.68,9.79l0.23 0.02zm150.73 -79.99c-0.46,3.98 -0.95,8.06 -1.4,12.27 -0.48,4.21 -0.94,8.47 -1.37,12.78 -0.43,4.32 -0.87,8.63 -1.28,12.99 -0.4,4.36 -0.76,8.67 -1.11,12.91 -0.33,4.26 -0.61,8.42 -0.86,12.5 -0.26,4.06 -0.46,7.97 -0.58,11.72l0.4 0.02c1.96,-4.79 4.07,-9.03 6.33,-12.71 2.26,-3.65 4.55,-6.72 6.88,-9.21 2.34,-2.49 4.65,-4.34 6.93,-5.6 2.28,-1.27 4.44,-1.9 6.48,-1.9 1.72,0 3.22,0.31 4.54,0.94 1.32,0.64 2.47,1.47 3.43,2.54 0.97,1.04 1.78,2.26 2.41,3.65 0.66,1.37 1.17,2.79 1.58,4.28 0.38,1.52 0.66,3.02 0.84,4.57 0.15,1.52 0.23,2.97 0.23,4.31 0,3.68 -0.35,7.12 -1.09,10.35 -0.74,3.19 -1.76,6.14 -3.02,8.77 -1.3,2.64 -2.82,4.97 -4.6,7.03 -1.76,2.05 -3.66,3.81 -5.72,5.2 -2.05,1.42 -4.24,2.49 -6.52,3.22 -2.26,0.74 -4.57,1.09 -6.86,1.09 -1.55,0 -3.1,-0.18 -4.65,-0.51 -1.55,-0.35 -3.05,-0.89 -4.55,-1.59 -1.47,-0.74 -2.87,-1.65 -4.16,-2.79 -1.32,-1.12 -2.51,-2.44 -3.56,-3.99 -0.86,2.18 -1.72,3.96 -2.64,5.35 -0.89,1.39 -1.7,2.51 -2.49,3.35l-1.93 -0.48c1.37,-3.81 2.36,-8.34 3.02,-13.67 0.64,-5.3 1.14,-11.31 1.47,-18.03 0.13,-2.86 0.28,-6.14 0.48,-9.79 0.18,-3.68 0.38,-7.54 0.56,-11.62 0.2,-4.06 0.4,-8.22 0.64,-12.45 0.23,-4.26 0.45,-8.37 0.68,-12.4 0.2,-4.01 0.43,-7.81 0.63,-11.39 0.18,-3.6 0.38,-6.77 0.56,-9.56 0.02,-0.58 0.2,-1.09 0.53,-1.52 0.35,-0.46 0.78,-0.79 1.32,-1.04 0.51,-0.28 1.12,-0.46 1.75,-0.58 0.66,-0.13 1.32,-0.2 1.96,-0.2 1.52,0 3.09,0.41 4.72,1.19zm24.38 69.67c0,-1.67 -0.13,-3.43 -0.41,-5.2 -0.25,-1.78 -0.66,-3.4 -1.21,-4.85 -0.56,-1.45 -1.3,-2.64 -2.18,-3.58 -0.91,-0.94 -2.01,-1.39 -3.3,-1.39 -1.52,0 -3,0.37 -4.49,1.14 -1.48,0.76 -2.9,1.78 -4.27,3.04 -1.37,1.27 -2.69,2.74 -3.96,4.41 -1.27,1.67 -2.44,3.42 -3.55,5.27 -1.09,1.83 -2.08,3.68 -2.97,5.55 -0.89,1.85 -1.65,3.63 -2.26,5.33 -0.64,1.67 -1.14,3.19 -1.47,4.59 -0.36,1.37 -0.54,2.46 -0.54,3.27 0.38,1.55 0.97,2.95 1.73,4.19 0.79,1.24 1.73,2.3 2.85,3.19 1.09,0.89 2.31,1.55 3.68,2.03 1.34,0.46 2.77,0.71 4.29,0.71 2.47,0 4.83,-0.64 7.01,-1.88 2.19,-1.27 4.12,-3.06 5.74,-5.45 1.65,-2.38 2.95,-5.27 3.89,-8.7 0.96,-3.45 1.45,-7.33 1.45,-11.69zm55.72 -16.46c0,1.67 -0.08,3.48 -0.18,5.4 -0.1,1.93 -0.25,3.88 -0.41,5.86 -0.15,1.98 -0.33,3.96 -0.54,5.91 -0.18,1.98 -0.35,3.86 -0.51,5.6 -0.15,1.75 -0.3,3.37 -0.41,4.85 -0.1,1.47 -0.18,2.71 -0.18,3.7 0,2.94 0.56,5.1 1.67,6.46 1.12,1.34 2.62,2.03 4.47,2.03 2.11,0 4.27,-1.12 6.48,-3.4 2.21,-2.26 4.32,-5.58 6.33,-9.95 2,-4.34 3.7,-9.25 5.13,-14.68 1.42,-5.42 2.31,-11.28 2.72,-17.6l7.9 -0.96 0.59 0.05c-0.23,2.36 -0.44,4.84 -0.61,7.48 -0.2,2.64 -0.35,5.28 -0.51,7.91 -0.15,2.64 -0.25,5.22 -0.33,7.73 -0.07,2.54 -0.12,4.87 -0.12,7 0,4.03 0.25,7.33 0.71,9.89 0.48,2.56 1.09,4.59 1.83,6.06 0.74,1.47 1.6,2.49 2.54,3.04 0.96,0.56 1.93,0.84 2.89,0.84 0.56,0 1.14,-0.08 1.7,-0.23 0.56,-0.15 1.07,-0.33 1.58,-0.53 0.48,-0.2 0.94,-0.43 1.35,-0.69 0.4,-0.25 0.76,-0.48 1.06,-0.66l1.21 1.7c-0.71,0.74 -1.52,1.44 -2.44,2.1 -0.91,0.66 -1.9,1.22 -2.92,1.7 -1.01,0.48 -2.08,0.86 -3.2,1.14 -1.09,0.28 -2.24,0.41 -3.38,0.41 -1.42,0 -2.82,-0.28 -4.19,-0.86 -1.35,-0.56 -2.54,-1.52 -3.58,-2.87 -1.04,-1.32 -1.88,-3.12 -2.51,-5.35 -0.64,-2.2 -0.94,-5 -0.94,-8.32 0,-1.07 0.03,-2.13 0.07,-3.22 0.05,-1.09 0.13,-2.23 0.21,-3.45 0.1,-1.22 0.25,-2.53 0.4,-3.93 0.15,-1.4 0.36,-2.95 0.59,-4.62l-0.43 -0.07c-1.68,6.21 -3.51,11.44 -5.49,15.65 -1.96,4.21 -3.99,7.58 -6.05,10.17 -2.08,2.56 -4.16,4.41 -6.25,5.5 -2.08,1.12 -4.06,1.67 -5.94,1.67 -1.42,0 -2.77,-0.25 -4.09,-0.74 -1.3,-0.48 -2.44,-1.27 -3.46,-2.38 -1.01,-1.09 -1.83,-2.56 -2.44,-4.36 -0.61,-1.8 -0.91,-4.03 -0.91,-6.67 0,-1.75 0.1,-3.75 0.28,-6.06 0.2,-2.28 0.43,-4.72 0.66,-7.31 0.23,-2.59 0.46,-5.27 0.66,-8.01 0.2,-2.76 0.28,-5.51 0.28,-8.22 0,-1.06 -0.03,-2.03 -0.11,-2.82 -0.07,-0.78 -0.22,-1.44 -0.48,-1.95 -0.25,-0.53 -0.61,-0.91 -1.09,-1.17 -0.48,-0.25 -1.15,-0.38 -2.01,-0.38 -0.84,0 -1.93,0.13 -3.28,0.38 -1.34,0.25 -2.77,0.58 -4.27,1.01l-0.56 -2.69c2.03,-0.71 3.94,-1.34 5.66,-1.88 1.76,-0.53 3.33,-0.96 4.7,-1.32 1.37,-0.33 2.54,-0.61 3.5,-0.79 0.94,-0.15 1.65,-0.25 2.08,-0.25 0.91,0 1.63,0.18 2.21,0.48 0.56,0.33 1.01,0.79 1.37,1.42 0.35,0.61 0.58,1.37 0.73,2.23 0.13,0.86 0.2,1.85 0.2,2.96zm75.84 33.1c0.15,1.87 0.66,3.5 1.5,4.87 0.84,1.37 1.85,2.49 3.07,3.35 1.22,0.86 2.57,1.5 4.04,1.93 1.47,0.43 2.95,0.63 4.39,0.63 1.37,0 2.69,-0.18 3.96,-0.56 1.25,-0.38 2.36,-0.91 3.33,-1.6 0.97,-0.68 1.76,-1.54 2.34,-2.56 0.59,-1.02 0.86,-2.16 0.86,-3.42 0,-1.32 -0.3,-2.46 -0.92,-3.45 -0.63,-0.99 -1.45,-1.9 -2.49,-2.71 -1.04,-0.81 -2.26,-1.57 -3.63,-2.26 -1.37,-0.71 -2.82,-1.42 -4.29,-2.13 -1.32,-0.61 -2.64,-1.24 -3.96,-1.88 -1.35,-0.63 -2.62,-1.32 -3.86,-2.05 -1.24,-0.74 -2.41,-1.55 -3.48,-2.41 -1.09,-0.89 -2.03,-1.83 -2.82,-2.89 -0.82,-1.04 -1.45,-2.23 -1.9,-3.53 -0.46,-1.29 -0.69,-2.74 -0.69,-4.34 0,-1.7 0.31,-3.27 0.89,-4.72 0.58,-1.42 1.4,-2.71 2.44,-3.88 1.01,-1.14 2.21,-2.16 3.58,-3.02 1.34,-0.86 2.79,-1.6 4.32,-2.18 1.55,-0.58 3.12,-1.01 4.75,-1.29 1.63,-0.28 3.2,-0.43 4.75,-0.43 1.98,0 3.86,0.23 5.63,0.66 1.76,0.43 3.33,1.06 4.65,1.87 1.32,0.84 2.39,1.85 3.15,3.04 0.78,1.19 1.17,2.51 1.17,4.01 0,0.56 -0.1,1.19 -0.28,1.85 -0.2,0.69 -0.53,1.3 -1.02,1.88 -0.45,0.59 -1.09,1.07 -1.85,1.48 -0.76,0.4 -1.7,0.61 -2.82,0.63 -1.04,0 -2.14,-0.15 -3.28,-0.48l-0.13 -0.38c0.35,-0.79 0.61,-1.52 0.76,-2.18 0.13,-0.68 0.2,-1.29 0.2,-1.85 -0.02,-1.14 -0.31,-2.1 -0.86,-2.89 -0.56,-0.79 -1.28,-1.42 -2.11,-1.9 -0.84,-0.51 -1.78,-0.86 -2.79,-1.09 -1.04,-0.23 -2.06,-0.33 -3.05,-0.33 -1.75,0 -3.33,0.23 -4.72,0.71 -1.37,0.46 -2.56,1.09 -3.5,1.88 -0.97,0.78 -1.7,1.65 -2.21,2.64 -0.51,1.01 -0.76,2.03 -0.76,3.1 0,1.37 0.35,2.58 1.09,3.65 0.71,1.09 1.67,2.08 2.87,2.99 1.17,0.88 2.53,1.75 4.08,2.53 1.55,0.79 3.18,1.57 4.88,2.38 1.88,0.89 3.76,1.8 5.61,2.77 1.85,0.94 3.5,2.03 4.98,3.24 1.47,1.21 2.64,2.61 3.55,4.19 0.91,1.57 1.35,3.42 1.35,5.55 0,2.53 -0.56,4.82 -1.68,6.79 -1.15,1.98 -2.64,3.66 -4.52,5.02 -1.88,1.34 -4.06,2.38 -6.5,3.09 -2.44,0.71 -4.98,1.07 -7.6,1.07 -1.32,0 -2.69,-0.1 -4.09,-0.31 -1.39,-0.2 -2.74,-0.51 -4.06,-0.89 -1.32,-0.4 -2.57,-0.88 -3.73,-1.47 -1.19,-0.58 -2.21,-1.24 -3.1,-2 -0.89,-0.76 -1.57,-1.6 -2.08,-2.54 -0.51,-0.91 -0.77,-1.95 -0.77,-3.07 0,-0.96 0.2,-1.77 0.61,-2.43 0.41,-0.68 0.94,-1.22 1.62,-1.65 0.66,-0.41 1.42,-0.74 2.24,-0.94 0.84,-0.2 1.7,-0.33 2.56,-0.35l0.31 0.25z"/>
   <path class="fil4" d="M1425.32 425.99c-0.86,0 -1.65,-0.18 -2.31,-0.53 -0.66,-0.38 -1.24,-0.84 -1.7,-1.42 -0.49,-0.58 -0.84,-1.24 -1.1,-2.01 -0.25,-0.76 -0.36,-1.55 -0.36,-2.33 0,-1.12 0.18,-2.11 0.56,-2.95 0.35,-0.86 0.84,-1.57 1.45,-2.15 0.58,-0.58 1.24,-1.02 1.95,-1.3 0.74,-0.31 1.42,-0.43 2.14,-0.43 0.84,0 1.6,0.15 2.26,0.46 0.66,0.31 1.25,0.74 1.73,1.3 0.48,0.53 0.86,1.17 1.12,1.87 0.25,0.69 0.4,1.45 0.4,2.28 0,0.86 -0.15,1.73 -0.46,2.56 -0.31,0.86 -0.71,1.65 -1.25,2.34 -0.53,0.68 -1.17,1.24 -1.93,1.67 -0.76,0.43 -1.59,0.64 -2.51,0.64zm3.23 16.79c-0.41,2.82 -0.77,5.66 -1.07,8.49 -0.31,2.82 -0.54,5.58 -0.74,8.22 -0.18,2.67 -0.31,5.18 -0.41,7.53 -0.07,2.36 -0.12,4.49 -0.12,6.39 0,2.58 0.05,4.79 0.1,6.64 0.08,1.85 0.2,3.4 0.38,4.67 0.18,1.27 0.38,2.26 0.66,3.02 0.25,0.76 0.58,1.34 0.97,1.75 0.38,0.41 0.84,0.69 1.34,0.79 0.51,0.13 1.07,0.2 1.73,0.2 1.19,0 2.46,-0.18 3.83,-0.53 1.37,-0.38 2.77,-0.87 4.19,-1.52l0.71 1.93c-0.89,0.73 -2.01,1.47 -3.38,2.2 -1.34,0.74 -2.77,1.42 -4.24,2.03 -1.5,0.63 -2.94,1.14 -4.39,1.52 -1.42,0.38 -2.64,0.55 -3.68,0.55 -0.71,0 -1.35,-0.05 -1.91,-0.15 -0.56,-0.13 -1.09,-0.41 -1.54,-0.84 -0.46,-0.46 -0.87,-1.12 -1.22,-1.98 -0.35,-0.87 -0.66,-2.03 -0.89,-3.53 -0.25,-1.47 -0.43,-3.35 -0.56,-5.58 -0.1,-2.23 -0.18,-4.92 -0.18,-8.09 0,-1.85 0.02,-3.96 0.05,-6.29 0.05,-2.36 0.1,-4.87 0.18,-7.56 0.08,-2.69 0.19,-5.5 0.31,-8.5 0.13,-2.99 0.28,-6.06 0.48,-9.23 0.05,-0.68 0.23,-1.27 0.56,-1.7 0.3,-0.43 0.71,-0.76 1.19,-0.99 0.45,-0.25 0.97,-0.4 1.5,-0.48 0.53,-0.1 1.02,-0.13 1.48,-0.13 1.65,0 3.22,0.38 4.67,1.15zm43.96 9.54c0,-1.02 -0.08,-1.85 -0.23,-2.56 -0.15,-0.68 -0.38,-1.24 -0.68,-1.65 -0.33,-0.41 -0.71,-0.68 -1.17,-0.86 -0.48,-0.18 -1.04,-0.28 -1.67,-0.28 -0.92,0 -1.98,0.13 -3.2,0.38 -1.24,0.25 -2.67,0.58 -4.24,1.01l-0.56 -2.69c1.76,-0.61 3.46,-1.17 5.09,-1.67 1.62,-0.51 3.1,-0.97 4.46,-1.32 1.38,-0.38 2.57,-0.66 3.61,-0.86 1.04,-0.21 1.85,-0.31 2.46,-0.31 1.45,0 2.57,0.43 3.35,1.29 0.81,0.84 1.22,2.31 1.22,4.39 0,0.25 -0.02,0.84 -0.07,1.72 -0.05,0.91 -0.11,2.05 -0.21,3.45 -0.07,1.4 -0.18,2.97 -0.31,4.77 -0.12,1.8 -0.28,3.7 -0.43,5.73 -0.18,2.06 -0.35,4.14 -0.53,6.32 -0.2,2.16 -0.43,4.31 -0.63,6.47l0.2 0.05c1.91,-6.39 3.91,-11.79 6.07,-16.18 2.16,-4.39 4.37,-7.96 6.58,-10.7 2.23,-2.74 4.47,-4.72 6.68,-5.94 2.21,-1.19 4.32,-1.8 6.32,-1.8 1.37,0 2.72,0.25 4.01,0.76 1.3,0.53 2.44,1.37 3.43,2.49 1.01,1.14 1.81,2.61 2.41,4.41 0.58,1.8 0.89,3.98 0.89,6.52 0,0.73 -0.05,1.75 -0.13,2.99 -0.08,1.24 -0.2,2.64 -0.3,4.19 -0.13,1.52 -0.28,3.17 -0.43,4.87 -0.18,1.72 -0.31,3.42 -0.43,5.07 -0.13,1.67 -0.23,3.24 -0.33,4.74 -0.08,1.5 -0.13,2.81 -0.13,3.93 0,1.93 0.08,3.5 0.25,4.72 0.15,1.22 0.43,2.16 0.79,2.87 0.38,0.71 0.86,1.19 1.5,1.44 0.61,0.28 1.37,0.41 2.26,0.41 1.3,0 2.64,-0.18 4.01,-0.53 1.4,-0.38 2.79,-0.87 4.22,-1.52l0.71 1.93c-0.89,0.73 -2.03,1.47 -3.4,2.2 -1.34,0.74 -2.79,1.42 -4.3,2.03 -1.5,0.63 -3,1.14 -4.47,1.52 -1.5,0.38 -2.82,0.55 -3.96,0.55 -1.32,0 -2.38,-0.35 -3.15,-1.06 -0.76,-0.71 -1.34,-1.7 -1.72,-2.94 -0.38,-1.24 -0.64,-2.69 -0.74,-4.34 -0.13,-1.67 -0.18,-3.45 -0.18,-5.35 0,-2.34 0.08,-4.72 0.25,-7.21 0.15,-2.46 0.33,-4.79 0.53,-7.02 0.2,-2.23 0.38,-4.26 0.53,-6.09 0.15,-1.8 0.26,-3.27 0.26,-4.36 0,-2.89 -0.56,-5.02 -1.65,-6.39 -1.09,-1.39 -2.54,-2.08 -4.34,-2.08 -1.45,0 -2.97,0.61 -4.55,1.83 -1.6,1.21 -3.17,2.89 -4.75,5 -1.57,2.13 -3.07,4.61 -4.54,7.51 -1.45,2.89 -2.74,6.01 -3.91,9.36 -1.17,3.35 -2.13,6.87 -2.9,10.53 -0.78,3.68 -1.27,7.33 -1.44,11.01l-7.8 0.97 -0.59 -0.03c0.21,-2.36 0.39,-4.92 0.56,-7.71 0.18,-2.77 0.33,-5.58 0.48,-8.45 0.15,-2.86 0.28,-5.68 0.38,-8.5 0.13,-2.82 0.23,-5.45 0.31,-7.89 0.1,-2.44 0.15,-4.62 0.18,-6.54 0.05,-1.95 0.08,-3.47 0.08,-4.59zm118.43 31.22c0.13,0.08 0.33,0.18 0.55,0.3 0.23,0.15 0.46,0.31 0.66,0.46 0.21,0.15 0.38,0.33 0.51,0.51 0.15,0.2 0.23,0.38 0.23,0.56 0,0.1 -0.02,0.18 -0.1,0.28 -1.39,1.95 -2.89,3.63 -4.49,5.05 -1.6,1.42 -3.26,2.61 -4.98,3.55 -1.73,0.97 -3.48,1.67 -5.26,2.13 -1.8,0.46 -3.55,0.68 -5.28,0.68 -2.97,0 -5.71,-0.61 -8.2,-1.83 -2.46,-1.21 -4.6,-2.86 -6.37,-4.97 -1.81,-2.11 -3.21,-4.56 -4.19,-7.41 -1.02,-2.84 -1.52,-5.88 -1.52,-9.12 0,-2.64 0.31,-5.3 0.89,-7.94 0.58,-2.66 1.42,-5.17 2.51,-7.58 1.12,-2.41 2.47,-4.64 4.04,-6.72 1.6,-2.06 3.4,-3.86 5.41,-5.38 2.03,-1.52 4.24,-2.71 6.68,-3.58 2.41,-0.89 5,-1.32 7.8,-1.32 1.83,0 3.58,0.25 5.23,0.76 1.68,0.48 3.13,1.19 4.37,2.13 1.28,0.94 2.26,2.08 3,3.42 0.74,1.37 1.12,2.92 1.12,4.67 0,2.51 -0.82,4.72 -2.47,6.59 -1.65,1.88 -3.94,3.48 -6.83,4.8 -2.89,1.32 -6.32,2.38 -10.26,3.19 -3.92,0.79 -8.18,1.39 -12.73,1.8l0 0.61c0,3.17 0.38,6.09 1.19,8.7 0.81,2.64 1.93,4.87 3.33,6.75 1.42,1.87 3.07,3.32 5,4.36 1.9,1.04 3.96,1.57 6.17,1.57 2.23,0 4.52,-0.56 6.85,-1.65 2.34,-1.12 4.73,-2.89 7.14,-5.38zm-7.01 -29.83c0,-1.14 -0.18,-2.2 -0.58,-3.19 -0.38,-0.99 -0.91,-1.85 -1.6,-2.59 -0.66,-0.73 -1.47,-1.32 -2.44,-1.72 -0.94,-0.43 -1.96,-0.63 -3.05,-0.63 -1.6,0 -3.07,0.28 -4.37,0.84 -1.32,0.58 -2.51,1.34 -3.55,2.34 -1.04,0.99 -1.96,2.13 -2.74,3.42 -0.79,1.29 -1.47,2.69 -2.03,4.13 -0.56,1.48 -1.01,2.97 -1.34,4.49 -0.35,1.55 -0.61,3.04 -0.76,4.52 3.53,-0.25 6.68,-0.68 9.47,-1.29 2.8,-0.61 5.16,-1.4 7.09,-2.34 1.9,-0.97 3.38,-2.1 4.39,-3.42 1.02,-1.32 1.52,-2.84 1.52,-4.54zm44.04 27.92c0.15,1.87 0.66,3.5 1.5,4.87 0.84,1.37 1.85,2.49 3.07,3.35 1.22,0.86 2.57,1.5 4.04,1.93 1.48,0.43 2.94,0.63 4.39,0.63 1.37,0 2.69,-0.18 3.96,-0.56 1.24,-0.38 2.36,-0.91 3.33,-1.6 0.96,-0.68 1.75,-1.54 2.34,-2.56 0.58,-1.02 0.86,-2.16 0.86,-3.42 0,-1.32 -0.3,-2.46 -0.91,-3.45 -0.64,-0.99 -1.45,-1.9 -2.49,-2.71 -1.04,-0.81 -2.26,-1.57 -3.64,-2.26 -1.37,-0.71 -2.82,-1.42 -4.29,-2.13 -1.32,-0.61 -2.64,-1.24 -3.96,-1.88 -1.35,-0.63 -2.62,-1.32 -3.86,-2.05 -1.24,-0.74 -2.42,-1.55 -3.48,-2.41 -1.1,-0.89 -2.03,-1.83 -2.82,-2.89 -0.82,-1.04 -1.45,-2.23 -1.91,-3.53 -0.45,-1.29 -0.68,-2.74 -0.68,-4.34 0,-1.7 0.31,-3.27 0.89,-4.72 0.58,-1.42 1.4,-2.71 2.44,-3.88 1.01,-1.14 2.21,-2.16 3.58,-3.02 1.35,-0.86 2.8,-1.6 4.32,-2.18 1.55,-0.58 3.12,-1.01 4.75,-1.29 1.63,-0.28 3.2,-0.43 4.75,-0.43 1.98,0 3.86,0.23 5.64,0.66 1.75,0.43 3.33,1.06 4.65,1.87 1.32,0.84 2.39,1.85 3.15,3.04 0.79,1.19 1.17,2.51 1.17,4.01 0,0.56 -0.1,1.19 -0.28,1.85 -0.2,0.69 -0.54,1.3 -1.02,1.88 -0.46,0.59 -1.09,1.07 -1.85,1.48 -0.77,0.4 -1.7,0.61 -2.82,0.63 -1.04,0 -2.13,-0.15 -3.27,-0.48l-0.13 -0.38c0.36,-0.79 0.61,-1.52 0.77,-2.18 0.12,-0.68 0.2,-1.29 0.2,-1.85 -0.02,-1.14 -0.31,-2.1 -0.86,-2.89 -0.56,-0.79 -1.27,-1.42 -2.11,-1.9 -0.84,-0.51 -1.78,-0.86 -2.79,-1.09 -1.04,-0.23 -2.06,-0.33 -3.05,-0.33 -1.76,0 -3.33,0.23 -4.72,0.71 -1.38,0.46 -2.57,1.09 -3.5,1.88 -0.97,0.78 -1.7,1.65 -2.21,2.64 -0.51,1.01 -0.77,2.03 -0.77,3.1 0,1.37 0.36,2.58 1.09,3.65 0.71,1.09 1.68,2.08 2.87,2.99 1.17,0.88 2.54,1.75 4.09,2.53 1.54,0.79 3.17,1.57 4.87,2.38 1.88,0.89 3.76,1.8 5.61,2.77 1.85,0.94 3.5,2.03 4.98,3.24 1.48,1.21 2.64,2.61 3.56,4.19 0.92,1.57 1.34,3.42 1.34,5.55 0,2.53 -0.56,4.82 -1.67,6.79 -1.14,1.98 -2.64,3.66 -4.52,5.02 -1.88,1.34 -4.06,2.38 -6.5,3.09 -2.44,0.71 -4.98,1.07 -7.6,1.07 -1.32,0 -2.69,-0.1 -4.09,-0.31 -1.4,-0.2 -2.74,-0.51 -4.06,-0.89 -1.32,-0.4 -2.57,-0.88 -3.73,-1.47 -1.19,-0.58 -2.21,-1.24 -3.1,-2 -0.89,-0.76 -1.58,-1.6 -2.08,-2.54 -0.51,-0.91 -0.76,-1.95 -0.76,-3.07 0,-0.96 0.2,-1.77 0.61,-2.43 0.4,-0.68 0.94,-1.22 1.62,-1.65 0.66,-0.41 1.43,-0.74 2.24,-0.94 0.84,-0.2 1.7,-0.33 2.57,-0.35l0.31 0.25zm66.44 0c0.15,1.87 0.66,3.5 1.5,4.87 0.84,1.37 1.85,2.49 3.07,3.35 1.22,0.86 2.56,1.5 4.04,1.93 1.47,0.43 2.95,0.63 4.39,0.63 1.37,0 2.69,-0.18 3.96,-0.56 1.24,-0.38 2.36,-0.91 3.33,-1.6 0.97,-0.68 1.76,-1.54 2.34,-2.56 0.58,-1.02 0.86,-2.16 0.86,-3.42 0,-1.32 -0.3,-2.46 -0.91,-3.45 -0.63,-0.99 -1.44,-1.9 -2.49,-2.71 -1.04,-0.81 -2.26,-1.57 -3.63,-2.26 -1.37,-0.71 -2.82,-1.42 -4.29,-2.13 -1.32,-0.61 -2.64,-1.24 -3.97,-1.88 -1.34,-0.63 -2.62,-1.32 -3.86,-2.05 -1.25,-0.74 -2.41,-1.55 -3.48,-2.41 -1.09,-0.89 -2.03,-1.83 -2.82,-2.89 -0.82,-1.04 -1.45,-2.23 -1.9,-3.53 -0.46,-1.29 -0.69,-2.74 -0.69,-4.34 0,-1.7 0.31,-3.27 0.89,-4.72 0.58,-1.42 1.4,-2.71 2.44,-3.88 1.01,-1.14 2.21,-2.16 3.58,-3.02 1.34,-0.86 2.79,-1.6 4.32,-2.18 1.54,-0.58 3.12,-1.01 4.75,-1.29 1.62,-0.28 3.2,-0.43 4.75,-0.43 1.97,0 3.86,0.23 5.63,0.66 1.76,0.43 3.33,1.06 4.65,1.87 1.32,0.84 2.39,1.85 3.15,3.04 0.78,1.19 1.17,2.51 1.17,4.01 0,0.56 -0.1,1.19 -0.28,1.85 -0.2,0.69 -0.53,1.3 -1.02,1.88 -0.45,0.59 -1.09,1.07 -1.85,1.48 -0.76,0.4 -1.7,0.61 -2.82,0.63 -1.04,0 -2.14,-0.15 -3.28,-0.48l-0.13 -0.38c0.35,-0.79 0.61,-1.52 0.76,-2.18 0.13,-0.68 0.2,-1.29 0.2,-1.85 -0.02,-1.14 -0.31,-2.1 -0.86,-2.89 -0.56,-0.79 -1.27,-1.42 -2.11,-1.9 -0.84,-0.51 -1.78,-0.86 -2.79,-1.09 -1.04,-0.23 -2.06,-0.33 -3.05,-0.33 -1.75,0 -3.33,0.23 -4.72,0.71 -1.37,0.46 -2.56,1.09 -3.5,1.88 -0.97,0.78 -1.7,1.65 -2.21,2.64 -0.51,1.01 -0.76,2.03 -0.76,3.1 0,1.37 0.35,2.58 1.09,3.65 0.72,1.09 1.68,2.08 2.88,2.99 1.17,0.88 2.53,1.75 4.08,2.53 1.55,0.79 3.18,1.57 4.88,2.38 1.88,0.89 3.76,1.8 5.61,2.77 1.86,0.94 3.51,2.03 4.98,3.24 1.48,1.21 2.64,2.61 3.56,4.19 0.92,1.57 1.34,3.42 1.34,5.55 0,2.53 -0.56,4.82 -1.67,6.79 -1.15,1.98 -2.64,3.66 -4.52,5.02 -1.88,1.34 -4.06,2.38 -6.5,3.09 -2.44,0.71 -4.98,1.07 -7.6,1.07 -1.32,0 -2.69,-0.1 -4.08,-0.31 -1.4,-0.2 -2.74,-0.51 -4.06,-0.89 -1.32,-0.4 -2.57,-0.88 -3.73,-1.47 -1.19,-0.58 -2.21,-1.24 -3.1,-2 -0.89,-0.76 -1.57,-1.6 -2.08,-2.54 -0.51,-0.91 -0.76,-1.95 -0.76,-3.07 0,-0.96 0.2,-1.77 0.61,-2.43 0.41,-0.68 0.94,-1.22 1.63,-1.65 0.66,-0.41 1.42,-0.74 2.24,-0.94 0.84,-0.2 1.7,-0.33 2.56,-0.35l0.31 0.25z"/>
  </g>
  <path class="fil5" d="M1691.35 53.54l0 -44.49 -15.85 0 0 -9.05 42.46 0 0 9.05 -15.78 0 0 44.49 -10.84 0zm35.86 0l0 -53.54 16.24 0 13.07 36.51 12.96 -36.51 16.28 0 0 53.54 -10.03 0 -0.04 -42.15 -14.03 42.15 -10.42 0 -13.98 -42.15 -0.04 42.15 -10.02 0z"/>
 </g>
</svg>
